<svg xmlns="http://www.w3.org/2000/svg" viewBox="0 9.470000267028809 560.1099853515625 46.31999969482422" data-asc="0.9052734375"><g fill="#000000"><g fill="#000000" transform="translate(0, 0)"><path d="M11.79 45.26L11.79 13.70L0 13.70L0 9.47L28.37 9.47L28.37 13.70L16.53 13.70L16.53 45.26L11.79 45.26ZM49.58 42.07Q47.14 44.14 44.89 45.00Q42.63 45.85 40.04 45.85Q35.77 45.85 33.47 43.76Q31.18 41.67 31.18 38.43Q31.18 36.52 32.04 34.95Q32.91 33.37 34.31 32.42Q35.72 31.47 37.48 30.98Q38.77 30.64 41.38 30.32Q46.70 29.69 49.22 28.81Q49.24 27.91 49.24 27.66Q49.24 24.98 48.00 23.88Q46.31 22.39 42.99 22.39Q39.89 22.39 38.42 23.47Q36.94 24.56 36.23 27.32L31.93 26.73Q32.52 23.97 33.86 22.28Q35.21 20.58 37.74 19.67Q40.28 18.75 43.63 18.75Q46.95 18.75 49.02 19.53Q51.10 20.31 52.08 21.50Q53.05 22.68 53.44 24.49Q53.66 25.61 53.66 28.54L53.66 34.40Q53.66 40.53 53.94 42.15Q54.22 43.77 55.05 45.26L50.46 45.26Q49.78 43.90 49.58 42.07M49.22 32.25Q46.83 33.23 42.04 33.91Q39.33 34.30 38.21 34.79Q37.08 35.28 36.47 36.22Q35.86 37.16 35.86 38.31Q35.86 40.06 37.19 41.24Q38.53 42.41 41.09 42.41Q43.63 42.41 45.61 41.30Q47.58 40.19 48.51 38.26Q49.22 36.77 49.22 33.86L49.22 32.25M47.90 9.52L50.90 9.52Q50.54 12.57 48.67 14.21Q46.80 15.84 43.70 15.84Q40.58 15.84 38.71 14.22Q36.84 12.60 36.47 9.52L39.48 9.52Q39.82 11.18 40.83 12.00Q41.85 12.82 43.55 12.82Q45.53 12.82 46.55 12.02Q47.56 11.23 47.90 9.52ZM60.47 45.26L60.47 19.34L64.43 19.34L64.43 23.02Q67.29 18.75 72.68 18.75Q75.02 18.75 76.99 19.59Q78.96 20.43 79.93 21.80Q80.91 23.17 81.30 25.05Q81.54 26.27 81.54 29.32L81.54 45.26L77.15 45.26L77.15 29.49Q77.15 26.81 76.64 25.48Q76.12 24.15 74.82 23.35Q73.51 22.56 71.75 22.56Q68.95 22.56 66.91 24.34Q64.87 26.12 64.87 31.10L64.87 45.26L60.47 45.26ZM87.48 47.41L91.75 48.05Q92.02 50.02 93.24 50.93Q94.87 52.15 97.71 52.15Q100.76 52.15 102.42 50.93Q104.08 49.71 104.66 47.51Q105.00 46.17 104.98 41.87Q102.10 45.26 97.80 45.26Q92.46 45.26 89.53 41.41Q86.60 37.55 86.60 32.15Q86.60 28.44 87.94 25.31Q89.28 22.17 91.83 20.46Q94.38 18.75 97.83 18.75Q102.42 18.75 105.40 22.46L105.40 19.34L109.45 19.34L109.45 41.75Q109.45 47.80 108.22 50.33Q106.98 52.86 104.31 54.32Q101.64 55.79 97.73 55.79Q93.09 55.79 90.23 53.70Q87.38 51.61 87.48 47.41M91.11 31.84Q91.11 36.94 93.14 39.28Q95.17 41.63 98.22 41.63Q101.25 41.63 103.30 39.29Q105.35 36.96 105.35 31.98Q105.35 27.22 103.23 24.80Q101.12 22.39 98.14 22.39Q95.21 22.39 93.16 24.77Q91.11 27.15 91.11 31.84ZM129.88 45.26L129.88 9.47L134.28 9.47L134.28 45.26L129.88 45.26ZM141.11 14.53L141.11 9.47L145.51 9.47L145.51 14.53L141.11 14.53M141.11 45.26L141.11 19.34L145.51 19.34L145.51 45.26L141.11 45.26ZM152.22 45.26L152.22 9.47L156.62 9.47L156.62 29.88L167.02 19.34L172.71 19.34L162.79 28.96L173.71 45.26L168.29 45.26L159.72 32.01L156.62 34.99L156.62 45.26L152.22 45.26ZM194.95 36.91L199.49 37.48Q198.41 41.46 195.51 43.65Q192.60 45.85 188.09 45.85Q182.40 45.85 179.06 42.35Q175.73 38.84 175.73 32.52Q175.73 25.98 179.10 22.36Q182.47 18.75 187.84 18.75Q193.04 18.75 196.34 22.29Q199.63 25.83 199.63 32.25Q199.63 32.64 199.61 33.42L180.27 33.42Q180.52 37.70 182.69 39.97Q184.86 42.24 188.11 42.24Q190.53 42.24 192.24 40.97Q193.95 39.70 194.95 36.91M180.52 29.81L195.00 29.81Q194.70 26.54 193.33 24.90Q191.24 22.36 187.89 22.36Q184.86 22.36 182.80 24.39Q180.74 26.42 180.52 29.81ZM218.90 55.20L218.90 19.34L222.90 19.34L222.90 22.71Q224.32 20.73 226.10 19.74Q227.88 18.75 230.42 18.75Q233.74 18.75 236.28 20.46Q238.82 22.17 240.11 25.28Q241.41 28.39 241.41 32.10Q241.41 36.08 239.98 39.27Q238.55 42.46 235.83 44.15Q233.11 45.85 230.10 45.85Q227.91 45.85 226.16 44.92Q224.41 43.99 223.29 42.58L223.29 55.20L218.90 55.20M222.88 32.45Q222.88 37.45 224.90 39.84Q226.93 42.24 229.81 42.24Q232.74 42.24 234.83 39.76Q236.91 37.28 236.91 32.08Q236.91 27.12 234.88 24.66Q232.84 22.19 230.00 22.19Q227.20 22.19 225.04 24.82Q222.88 27.44 222.88 32.45ZM263.62 42.07Q261.18 44.14 258.92 45.00Q256.67 45.85 254.08 45.85Q249.80 45.85 247.51 43.76Q245.21 41.67 245.21 38.43Q245.21 36.52 246.08 34.95Q246.95 33.37 248.35 32.42Q249.76 31.47 251.51 30.98Q252.81 30.64 255.42 30.32Q260.74 29.69 263.26 28.81Q263.28 27.91 263.28 27.66Q263.28 24.98 262.04 23.88Q260.35 22.39 257.03 22.39Q253.93 22.39 252.45 23.47Q250.98 24.56 250.27 27.32L245.97 26.73Q246.56 23.97 247.90 22.28Q249.24 20.58 251.78 19.67Q254.32 18.75 257.67 18.75Q260.99 18.75 263.06 19.53Q265.14 20.31 266.11 21.50Q267.09 22.68 267.48 24.49Q267.70 25.61 267.70 28.54L267.70 34.40Q267.70 40.53 267.98 42.15Q268.26 43.77 269.09 45.26L264.50 45.26Q263.82 43.90 263.62 42.07M263.26 32.25Q260.86 33.23 256.08 33.91Q253.37 34.30 252.25 34.79Q251.12 35.28 250.51 36.22Q249.90 37.16 249.90 38.31Q249.90 40.06 251.23 41.24Q252.56 42.41 255.13 42.41Q257.67 42.41 259.64 41.30Q261.62 40.19 262.55 38.26Q263.26 36.77 263.26 33.86L263.26 32.25ZM273.71 47.41L277.98 48.05Q278.25 50.02 279.47 50.93Q281.10 52.15 283.94 52.15Q286.99 52.15 288.65 50.93Q290.31 49.71 290.89 47.51Q291.24 46.17 291.21 41.87Q288.33 45.26 284.03 45.26Q278.69 45.26 275.76 41.41Q272.83 37.55 272.83 32.15Q272.83 28.44 274.17 25.31Q275.51 22.17 278.06 20.46Q280.62 18.75 284.06 18.75Q288.65 18.75 291.63 22.46L291.63 19.34L295.68 19.34L295.68 41.75Q295.68 47.80 294.45 50.33Q293.21 52.86 290.54 54.32Q287.87 55.79 283.96 55.79Q279.32 55.79 276.46 53.70Q273.61 51.61 273.71 47.41M277.34 31.84Q277.34 36.94 279.37 39.28Q281.40 41.63 284.45 41.63Q287.48 41.63 289.53 39.29Q291.58 36.96 291.58 31.98Q291.58 27.22 289.47 24.80Q287.35 22.39 284.38 22.39Q281.45 22.39 279.39 24.77Q277.34 27.15 277.34 31.84ZM320.07 36.91L324.61 37.48Q323.54 41.46 320.63 43.65Q317.72 45.85 313.21 45.85Q307.52 45.85 304.19 42.35Q300.85 38.84 300.85 32.52Q300.85 25.98 304.22 22.36Q307.59 18.75 312.96 18.75Q318.16 18.75 321.46 22.29Q324.76 25.83 324.76 32.25Q324.76 32.64 324.73 33.42L305.40 33.42Q305.64 37.70 307.81 39.97Q309.99 42.24 313.23 42.24Q315.65 42.24 317.36 40.97Q319.07 39.70 320.07 36.91M305.64 29.81L320.12 29.81Q319.82 26.54 318.46 24.90Q316.36 22.36 313.01 22.36Q309.99 22.36 307.92 24.39Q305.86 26.42 305.64 29.81ZM344.82 45.26L344.82 9.47L368.97 9.47L368.97 13.70L349.56 13.70L349.56 24.78L366.36 24.78L366.36 29.00L349.56 29.00L349.56 45.26L344.82 45.26ZM391.48 42.07Q389.04 44.14 386.78 45.00Q384.52 45.85 381.93 45.85Q377.66 45.85 375.37 43.76Q373.07 41.67 373.07 38.43Q373.07 36.52 373.94 34.95Q374.80 33.37 376.21 32.42Q377.61 31.47 379.37 30.98Q380.66 30.64 383.28 30.32Q388.60 29.69 391.11 28.81Q391.14 27.91 391.14 27.66Q391.14 24.98 389.89 23.88Q388.21 22.39 384.89 22.39Q381.79 22.39 380.31 23.47Q378.83 24.56 378.13 27.32L373.83 26.73Q374.41 23.97 375.76 22.28Q377.10 20.58 379.64 19.67Q382.18 18.75 385.52 18.75Q388.84 18.75 390.92 19.53Q392.99 20.31 393.97 21.50Q394.95 22.68 395.34 24.49Q395.56 25.61 395.56 28.54L395.56 34.40Q395.56 40.53 395.84 42.15Q396.12 43.77 396.95 45.26L392.36 45.26Q391.67 43.90 391.48 42.07M391.11 32.25Q388.72 33.23 383.94 33.91Q381.23 34.30 380.10 34.79Q378.98 35.28 378.37 36.22Q377.76 37.16 377.76 38.31Q377.76 40.06 379.09 41.24Q380.42 42.41 382.98 42.41Q385.52 42.41 387.50 41.30Q389.48 40.19 390.41 38.26Q391.11 36.77 391.11 33.86L391.11 32.25ZM419.29 35.77L423.61 36.33Q422.90 40.80 419.98 43.32Q417.07 45.85 412.82 45.85Q407.50 45.85 404.26 42.37Q401.03 38.89 401.03 32.40Q401.03 28.20 402.42 25.05Q403.81 21.90 406.65 20.32Q409.50 18.75 412.84 18.75Q417.07 18.75 419.75 20.89Q422.44 23.02 423.19 26.95L418.92 27.61Q418.31 25 416.76 23.68Q415.21 22.36 413.01 22.36Q409.69 22.36 407.62 24.74Q405.54 27.12 405.54 32.28Q405.54 37.50 407.54 39.87Q409.55 42.24 412.77 42.24Q415.36 42.24 417.09 40.65Q418.82 39.06 419.29 35.77ZM445.12 36.91L449.66 37.48Q448.58 41.46 445.68 43.65Q442.77 45.85 438.26 45.85Q432.57 45.85 429.24 42.35Q425.90 38.84 425.90 32.52Q425.90 25.98 429.27 22.36Q432.64 18.75 438.01 18.75Q443.21 18.75 446.51 22.29Q449.80 25.83 449.80 32.25Q449.80 32.64 449.78 33.42L430.44 33.42Q430.69 37.70 432.86 39.97Q435.03 42.24 438.28 42.24Q440.70 42.24 442.41 40.97Q444.12 39.70 445.12 36.91M430.69 29.81L445.17 29.81Q444.87 26.54 443.51 24.90Q441.41 22.36 438.06 22.36Q435.03 22.36 432.97 24.39Q430.91 26.42 430.69 29.81ZM459.23 45.26L455.15 45.26L455.15 9.47L459.55 9.47L459.55 22.24Q462.33 18.75 466.65 18.75Q469.04 18.75 471.18 19.71Q473.32 20.68 474.69 22.42Q476.07 24.17 476.86 26.64Q477.64 29.10 477.64 31.91Q477.64 38.57 474.34 42.21Q471.04 45.85 466.43 45.85Q461.84 45.85 459.23 42.02L459.23 45.26M459.18 32.10Q459.18 36.77 460.45 38.84Q462.52 42.24 466.06 42.24Q468.95 42.24 471.04 39.73Q473.14 37.23 473.14 32.28Q473.14 27.20 471.13 24.78Q469.12 22.36 466.26 22.36Q463.38 22.36 461.28 24.87Q459.18 27.37 459.18 32.10ZM481.35 32.30Q481.35 25.10 485.35 21.63Q488.70 18.75 493.51 18.75Q498.85 18.75 502.25 22.25Q505.64 25.76 505.64 31.93Q505.64 36.94 504.14 39.81Q502.64 42.68 499.77 44.26Q496.90 45.85 493.51 45.85Q488.06 45.85 484.70 42.36Q481.35 38.87 481.35 32.30M485.86 32.30Q485.86 37.28 488.04 39.76Q490.21 42.24 493.51 42.24Q496.78 42.24 498.95 39.75Q501.12 37.26 501.12 32.15Q501.12 27.34 498.94 24.87Q496.75 22.39 493.51 22.39Q490.21 22.39 488.04 24.85Q485.86 27.32 485.86 32.30ZM509.16 32.30Q509.16 25.10 513.16 21.63Q516.50 18.75 521.31 18.75Q526.66 18.75 530.05 22.25Q533.45 25.76 533.45 31.93Q533.45 36.94 531.95 39.81Q530.44 42.68 527.58 44.26Q524.71 45.85 521.31 45.85Q515.87 45.85 512.51 42.36Q509.16 38.87 509.16 32.30M513.67 32.30Q513.67 37.28 515.84 39.76Q518.02 42.24 521.31 42.24Q524.58 42.24 526.76 39.75Q528.93 37.26 528.93 32.15Q528.93 27.34 526.75 24.87Q524.56 22.39 521.31 22.39Q518.02 22.39 515.84 24.85Q513.67 27.32 513.67 32.30ZM538.62 45.26L538.62 9.47L543.02 9.47L543.02 29.88L553.42 19.34L559.11 19.34L549.19 28.96L560.11 45.26L554.69 45.26L546.12 32.01L543.02 34.99L543.02 45.26L538.62 45.26Z"/></g></g></svg>