<svg xmlns="http://www.w3.org/2000/svg" viewBox="0 9.279999732971191 565.7000122070312 46.51000213623047" data-asc="0.9052734375"><g fill="#000000"><g fill="#000000" transform="translate(0, 0)"><path d="M11.79 45.26L11.79 13.70L0 13.70L0 9.47L28.37 9.47L28.37 13.70L16.53 13.70L16.53 45.26L11.79 45.26ZM49.58 42.07Q47.14 44.14 44.89 45.00Q42.63 45.85 40.04 45.85Q35.77 45.85 33.47 43.76Q31.18 41.67 31.18 38.43Q31.18 36.52 32.04 34.95Q32.91 33.37 34.31 32.42Q35.72 31.47 37.48 30.98Q38.77 30.64 41.38 30.32Q46.70 29.69 49.22 28.81Q49.24 27.91 49.24 27.66Q49.24 24.98 48.00 23.88Q46.31 22.39 42.99 22.39Q39.89 22.39 38.42 23.47Q36.94 24.56 36.23 27.32L31.93 26.73Q32.52 23.97 33.86 22.28Q35.21 20.58 37.74 19.67Q40.28 18.75 43.63 18.75Q46.95 18.75 49.02 19.53Q51.10 20.31 52.08 21.50Q53.05 22.68 53.44 24.49Q53.66 25.61 53.66 28.54L53.66 34.40Q53.66 40.53 53.94 42.15Q54.22 43.77 55.05 45.26L50.46 45.26Q49.78 43.90 49.58 42.07M49.22 32.25Q46.83 33.23 42.04 33.91Q39.33 34.30 38.21 34.79Q37.08 35.28 36.47 36.22Q35.86 37.16 35.86 38.31Q35.86 40.06 37.19 41.24Q38.53 42.41 41.09 42.41Q43.63 42.41 45.61 41.30Q47.58 40.19 48.51 38.26Q49.22 36.77 49.22 33.86L49.22 32.25M47.90 9.52L50.90 9.52Q50.54 12.57 48.67 14.21Q46.80 15.84 43.70 15.84Q40.58 15.84 38.71 14.22Q36.84 12.60 36.47 9.52L39.48 9.52Q39.82 11.18 40.83 12.00Q41.85 12.82 43.55 12.82Q45.53 12.82 46.55 12.02Q47.56 11.23 47.90 9.52ZM60.47 45.26L60.47 19.34L64.43 19.34L64.43 23.02Q67.29 18.75 72.68 18.75Q75.02 18.75 76.99 19.59Q78.96 20.43 79.93 21.80Q80.91 23.17 81.30 25.05Q81.54 26.27 81.54 29.32L81.54 45.26L77.15 45.26L77.15 29.49Q77.15 26.81 76.64 25.48Q76.12 24.15 74.82 23.35Q73.51 22.56 71.75 22.56Q68.95 22.56 66.91 24.34Q64.87 26.12 64.87 31.10L64.87 45.26L60.47 45.26ZM87.48 47.41L91.75 48.05Q92.02 50.02 93.24 50.93Q94.87 52.15 97.71 52.15Q100.76 52.15 102.42 50.93Q104.08 49.71 104.66 47.51Q105.00 46.17 104.98 41.87Q102.10 45.26 97.80 45.26Q92.46 45.26 89.53 41.41Q86.60 37.55 86.60 32.15Q86.60 28.44 87.94 25.31Q89.28 22.17 91.83 20.46Q94.38 18.75 97.83 18.75Q102.42 18.75 105.40 22.46L105.40 19.34L109.45 19.34L109.45 41.75Q109.45 47.80 108.22 50.33Q106.98 52.86 104.31 54.32Q101.64 55.79 97.73 55.79Q93.09 55.79 90.23 53.70Q87.38 51.61 87.48 47.41M91.11 31.84Q91.11 36.94 93.14 39.28Q95.17 41.63 98.22 41.63Q101.25 41.63 103.30 39.29Q105.35 36.96 105.35 31.98Q105.35 27.22 103.23 24.80Q101.12 22.39 98.14 22.39Q95.21 22.39 93.16 24.77Q91.11 27.15 91.11 31.84ZM134.03 45.26L129.96 45.26L129.96 9.47L134.35 9.47L134.35 22.24Q137.13 18.75 141.46 18.75Q143.85 18.75 145.98 19.71Q148.12 20.68 149.50 22.42Q150.88 24.17 151.66 26.64Q152.44 29.10 152.44 31.91Q152.44 38.57 149.15 42.21Q145.85 45.85 141.24 45.85Q136.65 45.85 134.03 42.02L134.03 45.26M133.98 32.10Q133.98 36.77 135.25 38.84Q137.33 42.24 140.87 42.24Q143.75 42.24 145.85 39.73Q147.95 37.23 147.95 32.28Q147.95 27.20 145.94 24.78Q143.92 22.36 141.06 22.36Q138.18 22.36 136.08 24.87Q133.98 27.37 133.98 32.10ZM159.33 45.26L159.33 19.34L163.72 19.34L163.72 45.26L159.33 45.26M164.53 16.11L160.99 16.11L155.35 9.28L161.23 9.28L164.53 16.11ZM171.68 45.26L171.68 19.34L175.63 19.34L175.63 23.02Q178.49 18.75 183.89 18.75Q186.23 18.75 188.20 19.59Q190.16 20.43 191.14 21.80Q192.11 23.17 192.50 25.05Q192.75 26.27 192.75 29.32L192.75 45.26L188.35 45.26L188.35 29.49Q188.35 26.81 187.84 25.48Q187.33 24.15 186.02 23.35Q184.72 22.56 182.96 22.56Q180.15 22.56 178.11 24.34Q176.07 26.12 176.07 31.10L176.07 45.26L171.68 45.26ZM199.49 45.26L199.49 9.47L203.88 9.47L203.88 22.31Q206.96 18.75 211.65 18.75Q214.53 18.75 216.65 19.89Q218.77 21.02 219.69 23.02Q220.61 25.02 220.61 28.83L220.61 45.26L216.21 45.26L216.21 28.83Q216.21 25.54 214.78 24.04Q213.35 22.53 210.74 22.53Q208.79 22.53 207.07 23.55Q205.35 24.56 204.61 26.29Q203.88 28.03 203.88 31.08L203.88 45.26L199.49 45.26ZM241.09 45.26L241.09 9.47L245.48 9.47L245.48 45.26L241.09 45.26ZM269.29 45.26L269.29 41.46Q266.26 45.85 261.06 45.85Q258.76 45.85 256.77 44.97Q254.79 44.09 253.82 42.76Q252.86 41.43 252.47 39.50Q252.20 38.21 252.20 35.40L252.20 19.34L256.59 19.34L256.59 33.72Q256.59 37.16 256.86 38.35Q257.28 40.09 258.62 41.08Q259.96 42.07 261.94 42.07Q263.92 42.07 265.65 41.05Q267.38 40.04 268.10 38.29Q268.82 36.55 268.82 33.23L268.82 19.34L273.22 19.34L273.22 45.26L269.29 45.26ZM297.02 42.07Q294.58 44.14 292.32 45.00Q290.06 45.85 287.48 45.85Q283.20 45.85 280.91 43.76Q278.61 41.67 278.61 38.43Q278.61 36.52 279.48 34.95Q280.35 33.37 281.75 32.42Q283.15 31.47 284.91 30.98Q286.21 30.64 288.82 30.32Q294.14 29.69 296.66 28.81Q296.68 27.91 296.68 27.66Q296.68 24.98 295.43 23.88Q293.75 22.39 290.43 22.39Q287.33 22.39 285.85 23.47Q284.38 24.56 283.67 27.32L279.37 26.73Q279.96 23.97 281.30 22.28Q282.64 20.58 285.18 19.67Q287.72 18.75 291.06 18.75Q294.38 18.75 296.46 19.53Q298.54 20.31 299.51 21.50Q300.49 22.68 300.88 24.49Q301.10 25.61 301.10 28.54L301.10 34.40Q301.10 40.53 301.38 42.15Q301.66 43.77 302.49 45.26L297.90 45.26Q297.22 43.90 297.02 42.07M296.66 32.25Q294.26 33.23 289.48 33.91Q286.77 34.30 285.64 34.79Q284.52 35.28 283.91 36.22Q283.30 37.16 283.30 38.31Q283.30 40.06 284.63 41.24Q285.96 42.41 288.53 42.41Q291.06 42.41 293.04 41.30Q295.02 40.19 295.95 38.26Q296.66 36.77 296.66 33.86L296.66 32.25M290.63 11.96L287.87 16.11L282.84 16.11L288.11 9.28L292.80 9.28L298.29 16.11L293.31 16.11L290.63 11.96M287.99 53.20L287.99 48.19L292.99 48.19L292.99 53.20L287.99 53.20ZM307.91 45.26L307.91 19.34L311.87 19.34L311.87 23.02Q314.72 18.75 320.12 18.75Q322.46 18.75 324.43 19.59Q326.39 20.43 327.37 21.80Q328.34 23.17 328.74 25.05Q328.98 26.27 328.98 29.32L328.98 45.26L324.58 45.26L324.58 29.49Q324.58 26.81 324.07 25.48Q323.56 24.15 322.25 23.35Q320.95 22.56 319.19 22.56Q316.38 22.56 314.34 24.34Q312.30 26.12 312.30 31.10L312.30 45.26L307.91 45.26ZM350.42 45.26L350.42 9.47L374.56 9.47L374.56 13.70L355.15 13.70L355.15 24.78L371.95 24.78L371.95 29.00L355.15 29.00L355.15 45.26L350.42 45.26ZM397.07 42.07Q394.63 44.14 392.37 45.00Q390.11 45.85 387.52 45.85Q383.25 45.85 380.96 43.76Q378.66 41.67 378.66 38.43Q378.66 36.52 379.53 34.95Q380.40 33.37 381.80 32.42Q383.20 31.47 384.96 30.98Q386.25 30.64 388.87 30.32Q394.19 29.69 396.70 28.81Q396.73 27.91 396.73 27.66Q396.73 24.98 395.48 23.88Q393.80 22.39 390.48 22.39Q387.38 22.39 385.90 23.47Q384.42 24.56 383.72 27.32L379.42 26.73Q380.00 23.97 381.35 22.28Q382.69 20.58 385.23 19.67Q387.77 18.75 391.11 18.75Q394.43 18.75 396.51 19.53Q398.58 20.31 399.56 21.50Q400.54 22.68 400.93 24.49Q401.15 25.61 401.15 28.54L401.15 34.40Q401.15 40.53 401.43 42.15Q401.71 43.77 402.54 45.26L397.95 45.26Q397.27 43.90 397.07 42.07M396.70 32.25Q394.31 33.23 389.53 33.91Q386.82 34.30 385.69 34.79Q384.57 35.28 383.96 36.22Q383.35 37.16 383.35 38.31Q383.35 40.06 384.68 41.24Q386.01 42.41 388.57 42.41Q391.11 42.41 393.09 41.30Q395.07 40.19 396.00 38.26Q396.70 36.77 396.70 33.86L396.70 32.25ZM424.88 35.77L429.20 36.33Q428.49 40.80 425.57 43.32Q422.66 45.85 418.41 45.85Q413.09 45.85 409.85 42.37Q406.62 38.89 406.62 32.40Q406.62 28.20 408.01 25.05Q409.40 21.90 412.24 20.32Q415.09 18.75 418.43 18.75Q422.66 18.75 425.34 20.89Q428.03 23.02 428.78 26.95L424.51 27.61Q423.90 25 422.35 23.68Q420.80 22.36 418.60 22.36Q415.28 22.36 413.21 24.74Q411.13 27.12 411.13 32.28Q411.13 37.50 413.13 39.87Q415.14 42.24 418.36 42.24Q420.95 42.24 422.68 40.65Q424.41 39.06 424.88 35.77ZM450.71 36.91L455.25 37.48Q454.17 41.46 451.27 43.65Q448.36 45.85 443.85 45.85Q438.16 45.85 434.83 42.35Q431.49 38.84 431.49 32.52Q431.49 25.98 434.86 22.36Q438.23 18.75 443.60 18.75Q448.80 18.75 452.10 22.29Q455.40 25.83 455.40 32.25Q455.40 32.64 455.37 33.42L436.04 33.42Q436.28 37.70 438.45 39.97Q440.63 42.24 443.87 42.24Q446.29 42.24 448.00 40.97Q449.71 39.70 450.71 36.91M436.28 29.81L450.76 29.81Q450.46 26.54 449.10 24.90Q447.00 22.36 443.65 22.36Q440.63 22.36 438.56 24.39Q436.50 26.42 436.28 29.81ZM464.82 45.26L460.74 45.26L460.74 9.47L465.14 9.47L465.14 22.24Q467.92 18.75 472.24 18.75Q474.63 18.75 476.77 19.71Q478.91 20.68 480.29 22.42Q481.67 24.17 482.45 26.64Q483.23 29.10 483.23 31.91Q483.23 38.57 479.93 42.21Q476.64 45.85 472.02 45.85Q467.43 45.85 464.82 42.02L464.82 45.26M464.77 32.10Q464.77 36.77 466.04 38.84Q468.12 42.24 471.66 42.24Q474.54 42.24 476.64 39.73Q478.74 37.23 478.74 32.28Q478.74 27.20 476.72 24.78Q474.71 22.36 471.85 22.36Q468.97 22.36 466.87 24.87Q464.77 27.37 464.77 32.10ZM486.94 32.30Q486.94 25.10 490.94 21.63Q494.29 18.75 499.10 18.75Q504.44 18.75 507.84 22.25Q511.23 25.76 511.23 31.93Q511.23 36.94 509.73 39.81Q508.23 42.68 505.36 44.26Q502.49 45.85 499.10 45.85Q493.65 45.85 490.30 42.36Q486.94 38.87 486.94 32.30M491.46 32.30Q491.46 37.28 493.63 39.76Q495.80 42.24 499.10 42.24Q502.37 42.24 504.54 39.75Q506.71 37.26 506.71 32.15Q506.71 27.34 504.53 24.87Q502.34 22.39 499.10 22.39Q495.80 22.39 493.63 24.85Q491.46 27.32 491.46 32.30ZM514.75 32.30Q514.75 25.10 518.75 21.63Q522.09 18.75 526.90 18.75Q532.25 18.75 535.64 22.25Q539.04 25.76 539.04 31.93Q539.04 36.94 537.54 39.81Q536.04 42.68 533.17 44.26Q530.30 45.85 526.90 45.85Q521.46 45.85 518.10 42.36Q514.75 38.87 514.75 32.30M519.26 32.30Q519.26 37.28 521.44 39.76Q523.61 42.24 526.90 42.24Q530.18 42.24 532.35 39.75Q534.52 37.26 534.52 32.15Q534.52 27.34 532.34 24.87Q530.15 22.39 526.90 22.39Q523.61 22.39 521.44 24.85Q519.26 27.32 519.26 32.30ZM544.21 45.26L544.21 9.47L548.61 9.47L548.61 29.88L559.01 19.34L564.70 19.34L554.79 28.96L565.70 45.26L560.28 45.26L551.71 32.01L548.61 34.99L548.61 45.26L544.21 45.26Z"/></g></g></svg>