<svg xmlns="http://www.w3.org/2000/svg" viewBox="0 0.6600000262260437 607.2999877929688 55.130001068115234" data-asc="0.9052734375"><g fill="#000000"><g fill="#000000" transform="translate(0, 0)"><path d="M11.79 45.26L11.79 13.70L0 13.70L0 9.47L28.37 9.47L28.37 13.70L16.53 13.70L16.53 45.26L11.79 45.26ZM49.58 42.07Q47.14 44.14 44.89 45.00Q42.63 45.85 40.04 45.85Q35.77 45.85 33.47 43.76Q31.18 41.67 31.18 38.43Q31.18 36.52 32.04 34.95Q32.91 33.37 34.31 32.42Q35.72 31.47 37.48 30.98Q38.77 30.64 41.38 30.32Q46.70 29.69 49.22 28.81Q49.24 27.91 49.24 27.66Q49.24 24.98 48.00 23.88Q46.31 22.39 42.99 22.39Q39.89 22.39 38.42 23.47Q36.94 24.56 36.23 27.32L31.93 26.73Q32.52 23.97 33.86 22.28Q35.21 20.58 37.74 19.67Q40.28 18.75 43.63 18.75Q46.95 18.75 49.02 19.53Q51.10 20.31 52.08 21.50Q53.05 22.68 53.44 24.49Q53.66 25.61 53.66 28.54L53.66 34.40Q53.66 40.53 53.94 42.15Q54.22 43.77 55.05 45.26L50.46 45.26Q49.78 43.90 49.58 42.07M49.22 32.25Q46.83 33.23 42.04 33.91Q39.33 34.30 38.21 34.79Q37.08 35.28 36.47 36.22Q35.86 37.16 35.86 38.31Q35.86 40.06 37.19 41.24Q38.53 42.41 41.09 42.41Q43.63 42.41 45.61 41.30Q47.58 40.19 48.51 38.26Q49.22 36.77 49.22 33.86L49.22 32.25M47.90 9.52L50.90 9.52Q50.54 12.57 48.67 14.21Q46.80 15.84 43.70 15.84Q40.58 15.84 38.71 14.22Q36.84 12.60 36.47 9.52L39.48 9.52Q39.82 11.18 40.83 12.00Q41.85 12.82 43.55 12.82Q45.53 12.82 46.55 12.02Q47.56 11.23 47.90 9.52ZM60.47 45.26L60.47 19.34L64.43 19.34L64.43 23.02Q67.29 18.75 72.68 18.75Q75.02 18.75 76.99 19.59Q78.96 20.43 79.93 21.80Q80.91 23.17 81.30 25.05Q81.54 26.27 81.54 29.32L81.54 45.26L77.15 45.26L77.15 29.49Q77.15 26.81 76.64 25.48Q76.12 24.15 74.82 23.35Q73.51 22.56 71.75 22.56Q68.95 22.56 66.91 24.34Q64.87 26.12 64.87 31.10L64.87 45.26L60.47 45.26ZM87.48 47.41L91.75 48.05Q92.02 50.02 93.24 50.93Q94.87 52.15 97.71 52.15Q100.76 52.15 102.42 50.93Q104.08 49.71 104.66 47.51Q105.00 46.17 104.98 41.87Q102.10 45.26 97.80 45.26Q92.46 45.26 89.53 41.41Q86.60 37.55 86.60 32.15Q86.60 28.44 87.94 25.31Q89.28 22.17 91.83 20.46Q94.38 18.75 97.83 18.75Q102.42 18.75 105.40 22.46L105.40 19.34L109.45 19.34L109.45 41.75Q109.45 47.80 108.22 50.33Q106.98 52.86 104.31 54.32Q101.64 55.79 97.73 55.79Q93.09 55.79 90.23 53.70Q87.38 51.61 87.48 47.41M91.11 31.84Q91.11 36.94 93.14 39.28Q95.17 41.63 98.22 41.63Q101.25 41.63 103.30 39.29Q105.35 36.96 105.35 31.98Q105.35 27.22 103.23 24.80Q101.12 22.39 98.14 22.39Q95.21 22.39 93.16 24.77Q91.11 27.15 91.11 31.84ZM129.88 45.26L129.88 9.47L134.28 9.47L134.28 45.26L129.88 45.26ZM141.11 14.53L141.11 9.47L145.51 9.47L145.51 14.53L141.11 14.53M141.11 45.26L141.11 19.34L145.51 19.34L145.51 45.26L141.11 45.26ZM152.22 45.26L152.22 9.47L156.62 9.47L156.62 29.88L167.02 19.34L172.71 19.34L162.79 28.96L173.71 45.26L168.29 45.26L159.72 32.01L156.62 34.99L156.62 45.26L152.22 45.26ZM194.95 36.91L199.49 37.48Q198.41 41.46 195.51 43.65Q192.60 45.85 188.09 45.85Q182.40 45.85 179.06 42.35Q175.73 38.84 175.73 32.52Q175.73 25.98 179.10 22.36Q182.47 18.75 187.84 18.75Q193.04 18.75 196.34 22.29Q199.63 25.83 199.63 32.25Q199.63 32.64 199.61 33.42L180.27 33.42Q180.52 37.70 182.69 39.97Q184.86 42.24 188.11 42.24Q190.53 42.24 192.24 40.97Q193.95 39.70 194.95 36.91M180.52 29.81L195.00 29.81Q194.70 26.54 193.33 24.90Q191.24 22.36 187.89 22.36Q184.86 22.36 182.80 24.39Q180.74 26.42 180.52 29.81ZM222.95 45.26L218.87 45.26L218.87 9.47L223.27 9.47L223.27 22.24Q226.05 18.75 230.37 18.75Q232.76 18.75 234.90 19.71Q237.04 20.68 238.42 22.42Q239.79 24.17 240.58 26.64Q241.36 29.10 241.36 31.91Q241.36 38.57 238.06 42.21Q234.77 45.85 230.15 45.85Q225.56 45.85 222.95 42.02L222.95 45.26M222.90 32.10Q222.90 36.77 224.17 38.84Q226.25 42.24 229.79 42.24Q232.67 42.24 234.77 39.73Q236.87 37.23 236.87 32.28Q236.87 27.20 234.85 24.78Q232.84 22.36 229.98 22.36Q227.10 22.36 225 24.87Q222.90 27.37 222.90 32.10ZM263.62 42.07Q261.18 44.14 258.92 45.00Q256.67 45.85 254.08 45.85Q249.80 45.85 247.51 43.76Q245.21 41.67 245.21 38.43Q245.21 36.52 246.08 34.95Q246.95 33.37 248.35 32.42Q249.76 31.47 251.51 30.98Q252.81 30.64 255.42 30.32Q260.74 29.69 263.26 28.81Q263.28 27.91 263.28 27.66Q263.28 24.98 262.04 23.88Q260.35 22.39 257.03 22.39Q253.93 22.39 252.45 23.47Q250.98 24.56 250.27 27.32L245.97 26.73Q246.56 23.97 247.90 22.28Q249.24 20.58 251.78 19.67Q254.32 18.75 257.67 18.75Q260.99 18.75 263.06 19.53Q265.14 20.31 266.11 21.50Q267.09 22.68 267.48 24.49Q267.70 25.61 267.70 28.54L267.70 34.40Q267.70 40.53 267.98 42.15Q268.26 43.77 269.09 45.26L264.50 45.26Q263.82 43.90 263.62 42.07M263.26 32.25Q260.86 33.23 256.08 33.91Q253.37 34.30 252.25 34.79Q251.12 35.28 250.51 36.22Q249.90 37.16 249.90 38.31Q249.90 40.06 251.23 41.24Q252.56 42.41 255.13 42.41Q257.67 42.41 259.64 41.30Q261.62 40.19 262.55 38.26Q263.26 36.77 263.26 33.86L263.26 32.25M260.86 16.11L257.32 16.11L251.68 9.28L257.57 9.28L260.86 16.11ZM274.54 14.53L274.54 9.47L278.93 9.47L278.93 14.53L274.54 14.53M274.54 45.26L274.54 19.34L278.93 19.34L278.93 45.26L274.54 45.26ZM306.71 45.26L296.85 19.34L301.49 19.34L307.06 34.86Q307.96 37.38 308.72 40.09Q309.30 38.04 310.35 35.16L316.11 19.34L320.63 19.34L310.82 45.26L306.71 45.26ZM324.54 14.53L324.54 9.47L328.93 9.47L328.93 14.53L324.54 14.53M324.54 45.26L324.54 19.34L328.93 19.34L328.93 45.26L324.54 45.26ZM353.37 36.91L357.91 37.48Q356.84 41.46 353.93 43.65Q351.03 45.85 346.51 45.85Q340.82 45.85 337.49 42.35Q334.16 38.84 334.16 32.52Q334.16 25.98 337.52 22.36Q340.89 18.75 346.26 18.75Q351.46 18.75 354.76 22.29Q358.06 25.83 358.06 32.25Q358.06 32.64 358.03 33.42L338.70 33.42Q338.94 37.70 341.11 39.97Q343.29 42.24 346.53 42.24Q348.95 42.24 350.66 40.97Q352.37 39.70 353.37 36.91M338.94 29.81L353.42 29.81Q353.13 26.54 351.76 24.90Q349.66 22.36 346.31 22.36Q343.29 22.36 341.22 24.39Q339.16 26.42 338.94 29.81M346.17 11.96L343.41 16.11L338.38 16.11L343.65 9.28L348.34 9.28L353.83 16.11L348.85 16.11L346.17 11.96M346.95 0.66L352.83 0.66L347.19 7.50L343.65 7.50L346.95 0.66ZM373.02 41.33L373.66 45.21Q371.80 45.61 370.34 45.61Q367.94 45.61 366.63 44.85Q365.31 44.09 364.77 42.86Q364.23 41.63 364.23 37.67L364.23 22.75L361.01 22.75L361.01 19.34L364.23 19.34L364.23 12.92L368.60 10.28L368.60 19.34L373.02 19.34L373.02 22.75L368.60 22.75L368.60 37.92Q368.60 39.79 368.84 40.33Q369.07 40.87 369.59 41.19Q370.12 41.50 371.09 41.50Q371.83 41.50 373.02 41.33ZM392.02 45.26L392.02 9.47L416.16 9.47L416.16 13.70L396.75 13.70L396.75 24.78L413.55 24.78L413.55 29.00L396.75 29.00L396.75 45.26L392.02 45.26ZM438.67 42.07Q436.23 44.14 433.97 45.00Q431.71 45.85 429.13 45.85Q424.85 45.85 422.56 43.76Q420.26 41.67 420.26 38.43Q420.26 36.52 421.13 34.95Q422.00 33.37 423.40 32.42Q424.80 31.47 426.56 30.98Q427.86 30.64 430.47 30.32Q435.79 29.69 438.31 28.81Q438.33 27.91 438.33 27.66Q438.33 24.98 437.08 23.88Q435.40 22.39 432.08 22.39Q428.98 22.39 427.50 23.47Q426.03 24.56 425.32 27.32L421.02 26.73Q421.61 23.97 422.95 22.28Q424.29 20.58 426.83 19.67Q429.37 18.75 432.71 18.75Q436.04 18.75 438.11 19.53Q440.19 20.31 441.16 21.50Q442.14 22.68 442.53 24.49Q442.75 25.61 442.75 28.54L442.75 34.40Q442.75 40.53 443.03 42.15Q443.31 43.77 444.14 45.26L439.55 45.26Q438.87 43.90 438.67 42.07M438.31 32.25Q435.91 33.23 431.13 33.91Q428.42 34.30 427.29 34.79Q426.17 35.28 425.56 36.22Q424.95 37.16 424.95 38.31Q424.95 40.06 426.28 41.24Q427.61 42.41 430.18 42.41Q432.71 42.41 434.69 41.30Q436.67 40.19 437.60 38.26Q438.31 36.77 438.31 33.86L438.31 32.25ZM466.48 35.77L470.80 36.33Q470.09 40.80 467.18 43.32Q464.26 45.85 460.01 45.85Q454.69 45.85 451.45 42.37Q448.22 38.89 448.22 32.40Q448.22 28.20 449.61 25.05Q451.00 21.90 453.85 20.32Q456.69 18.75 460.03 18.75Q464.26 18.75 466.94 20.89Q469.63 23.02 470.39 26.95L466.11 27.61Q465.50 25 463.95 23.68Q462.40 22.36 460.21 22.36Q456.88 22.36 454.81 24.74Q452.73 27.12 452.73 32.28Q452.73 37.50 454.74 39.87Q456.74 42.24 459.96 42.24Q462.55 42.24 464.28 40.65Q466.02 39.06 466.48 35.77ZM492.31 36.91L496.85 37.48Q495.78 41.46 492.87 43.65Q489.97 45.85 485.45 45.85Q479.76 45.85 476.43 42.35Q473.10 38.84 473.10 32.52Q473.10 25.98 476.46 22.36Q479.83 18.75 485.21 18.75Q490.41 18.75 493.70 22.29Q497.00 25.83 497.00 32.25Q497.00 32.64 496.97 33.42L477.64 33.42Q477.88 37.70 480.05 39.97Q482.23 42.24 485.47 42.24Q487.89 42.24 489.60 40.97Q491.31 39.70 492.31 36.91M477.88 29.81L492.36 29.81Q492.07 26.54 490.70 24.90Q488.60 22.36 485.25 22.36Q482.23 22.36 480.16 24.39Q478.10 26.42 477.88 29.81ZM506.42 45.26L502.34 45.26L502.34 9.47L506.74 9.47L506.74 22.24Q509.52 18.75 513.84 18.75Q516.24 18.75 518.37 19.71Q520.51 20.68 521.89 22.42Q523.27 24.17 524.05 26.64Q524.83 29.10 524.83 31.91Q524.83 38.57 521.53 42.21Q518.24 45.85 513.62 45.85Q509.03 45.85 506.42 42.02L506.42 45.26M506.37 32.10Q506.37 36.77 507.64 38.84Q509.72 42.24 513.26 42.24Q516.14 42.24 518.24 39.73Q520.34 37.23 520.34 32.28Q520.34 27.20 518.32 24.78Q516.31 22.36 513.45 22.36Q510.57 22.36 508.47 24.87Q506.37 27.37 506.37 32.10ZM528.54 32.30Q528.54 25.10 532.54 21.63Q535.89 18.75 540.70 18.75Q546.04 18.75 549.44 22.25Q552.83 25.76 552.83 31.93Q552.83 36.94 551.33 39.81Q549.83 42.68 546.96 44.26Q544.09 45.85 540.70 45.85Q535.25 45.85 531.90 42.36Q528.54 38.87 528.54 32.30M533.06 32.30Q533.06 37.28 535.23 39.76Q537.40 42.24 540.70 42.24Q543.97 42.24 546.14 39.75Q548.32 37.26 548.32 32.15Q548.32 27.34 546.13 24.87Q543.95 22.39 540.70 22.39Q537.40 22.39 535.23 24.85Q533.06 27.32 533.06 32.30ZM556.35 32.30Q556.35 25.10 560.35 21.63Q563.70 18.75 568.51 18.75Q573.85 18.75 577.25 22.25Q580.64 25.76 580.64 31.93Q580.64 36.94 579.14 39.81Q577.64 42.68 574.77 44.26Q571.90 45.85 568.51 45.85Q563.06 45.85 559.70 42.36Q556.35 38.87 556.35 32.30M560.86 32.30Q560.86 37.28 563.04 39.76Q565.21 42.24 568.51 42.24Q571.78 42.24 573.95 39.75Q576.12 37.26 576.12 32.15Q576.12 27.34 573.94 24.87Q571.75 22.39 568.51 22.39Q565.21 22.39 563.04 24.85Q560.86 27.32 560.86 32.30ZM585.82 45.26L585.82 9.47L590.21 9.47L590.21 29.88L600.61 19.34L606.30 19.34L596.39 28.96L607.30 45.26L601.88 45.26L593.31 32.01L590.21 34.99L590.21 45.26L585.82 45.26Z"/></g></g></svg>