<svg xmlns="http://www.w3.org/2000/svg" viewBox="0 0.6600000262260437 685.030029296875 55.130001068115234" data-asc="0.9052734375"><g fill="#000000"><g fill="#000000" transform="translate(0, 0)"><path d="M11.79 45.26L11.79 13.70L0 13.70L0 9.47L28.37 9.47L28.37 13.70L16.53 13.70L16.53 45.26L11.79 45.26ZM49.58 42.07Q47.14 44.14 44.89 45.00Q42.63 45.85 40.04 45.85Q35.77 45.85 33.47 43.76Q31.18 41.67 31.18 38.43Q31.18 36.52 32.04 34.95Q32.91 33.37 34.31 32.42Q35.72 31.47 37.48 30.98Q38.77 30.64 41.38 30.32Q46.70 29.69 49.22 28.81Q49.24 27.91 49.24 27.66Q49.24 24.98 48.00 23.88Q46.31 22.39 42.99 22.39Q39.89 22.39 38.42 23.47Q36.94 24.56 36.23 27.32L31.93 26.73Q32.52 23.97 33.86 22.28Q35.21 20.58 37.74 19.67Q40.28 18.75 43.63 18.75Q46.95 18.75 49.02 19.53Q51.10 20.31 52.08 21.50Q53.05 22.68 53.44 24.49Q53.66 25.61 53.66 28.54L53.66 34.40Q53.66 40.53 53.94 42.15Q54.22 43.77 55.05 45.26L50.46 45.26Q49.78 43.90 49.58 42.07M49.22 32.25Q46.83 33.23 42.04 33.91Q39.33 34.30 38.21 34.79Q37.08 35.28 36.47 36.22Q35.86 37.16 35.86 38.31Q35.86 40.06 37.19 41.24Q38.53 42.41 41.09 42.41Q43.63 42.41 45.61 41.30Q47.58 40.19 48.51 38.26Q49.22 36.77 49.22 33.86L49.22 32.25M47.90 9.52L50.90 9.52Q50.54 12.57 48.67 14.21Q46.80 15.84 43.70 15.84Q40.58 15.84 38.71 14.22Q36.84 12.60 36.47 9.52L39.48 9.52Q39.82 11.18 40.83 12.00Q41.85 12.82 43.55 12.82Q45.53 12.82 46.55 12.02Q47.56 11.23 47.90 9.52ZM60.47 45.26L60.47 19.34L64.43 19.34L64.43 23.02Q67.29 18.75 72.68 18.75Q75.02 18.75 76.99 19.59Q78.96 20.43 79.93 21.80Q80.91 23.17 81.30 25.05Q81.54 26.27 81.54 29.32L81.54 45.26L77.15 45.26L77.15 29.49Q77.15 26.81 76.64 25.48Q76.12 24.15 74.82 23.35Q73.51 22.56 71.75 22.56Q68.95 22.56 66.91 24.34Q64.87 26.12 64.87 31.10L64.87 45.26L60.47 45.26ZM87.48 47.41L91.75 48.05Q92.02 50.02 93.24 50.93Q94.87 52.15 97.71 52.15Q100.76 52.15 102.42 50.93Q104.08 49.71 104.66 47.51Q105.00 46.17 104.98 41.87Q102.10 45.26 97.80 45.26Q92.46 45.26 89.53 41.41Q86.60 37.55 86.60 32.15Q86.60 28.44 87.94 25.31Q89.28 22.17 91.83 20.46Q94.38 18.75 97.83 18.75Q102.42 18.75 105.40 22.46L105.40 19.34L109.45 19.34L109.45 41.75Q109.45 47.80 108.22 50.33Q106.98 52.86 104.31 54.32Q101.64 55.79 97.73 55.79Q93.09 55.79 90.23 53.70Q87.38 51.61 87.48 47.41M91.11 31.84Q91.11 36.94 93.14 39.28Q95.17 41.63 98.22 41.63Q101.25 41.63 103.30 39.29Q105.35 36.96 105.35 31.98Q105.35 27.22 103.23 24.80Q101.12 22.39 98.14 22.39Q95.21 22.39 93.16 24.77Q91.11 27.15 91.11 31.84ZM129.98 45.26L129.98 19.34L133.91 19.34L133.91 22.97Q135.13 21.07 137.16 19.91Q139.18 18.75 141.77 18.75Q144.65 18.75 146.50 19.95Q148.34 21.14 149.10 23.29Q152.17 18.75 157.10 18.75Q160.96 18.75 163.04 20.89Q165.11 23.02 165.11 27.47L165.11 45.26L160.74 45.26L160.74 28.93Q160.74 26.29 160.31 25.13Q159.89 23.97 158.76 23.27Q157.64 22.56 156.13 22.56Q153.39 22.56 151.59 24.38Q149.78 26.20 149.78 30.20L149.78 45.26L145.39 45.26L145.39 28.42Q145.39 25.49 144.31 24.02Q143.24 22.56 140.80 22.56Q138.94 22.56 137.37 23.54Q135.79 24.51 135.08 26.39Q134.38 28.27 134.38 31.81L134.38 45.26L129.98 45.26ZM188.55 42.07Q186.11 44.14 183.85 45.00Q181.59 45.85 179.00 45.85Q174.73 45.85 172.44 43.76Q170.14 41.67 170.14 38.43Q170.14 36.52 171.01 34.95Q171.88 33.37 173.28 32.42Q174.68 31.47 176.44 30.98Q177.73 30.64 180.35 30.32Q185.67 29.69 188.18 28.81Q188.21 27.91 188.21 27.66Q188.21 24.98 186.96 23.88Q185.28 22.39 181.96 22.39Q178.86 22.39 177.38 23.47Q175.90 24.56 175.20 27.32L170.90 26.73Q171.48 23.97 172.83 22.28Q174.17 20.58 176.71 19.67Q179.25 18.75 182.59 18.75Q185.91 18.75 187.99 19.53Q190.06 20.31 191.04 21.50Q192.02 22.68 192.41 24.49Q192.63 25.61 192.63 28.54L192.63 34.40Q192.63 40.53 192.91 42.15Q193.19 43.77 194.02 45.26L189.43 45.26Q188.75 43.90 188.55 42.07M188.18 32.25Q185.79 33.23 181.01 33.91Q178.30 34.30 177.17 34.79Q176.05 35.28 175.44 36.22Q174.83 37.16 174.83 38.31Q174.83 40.06 176.16 41.24Q177.49 42.41 180.05 42.41Q182.59 42.41 184.57 41.30Q186.55 40.19 187.48 38.26Q188.18 36.77 188.18 33.86L188.18 32.25M186.87 9.52L189.87 9.52Q189.50 12.57 187.63 14.21Q185.77 15.84 182.67 15.84Q179.54 15.84 177.67 14.22Q175.81 12.60 175.44 9.52L178.44 9.52Q178.78 11.18 179.80 12.00Q180.81 12.82 182.52 12.82Q184.50 12.82 185.51 12.02Q186.52 11.23 186.87 9.52M182.86 0.66L188.75 0.66L183.11 7.50L179.57 7.50L182.86 0.66ZM209.03 41.33L209.67 45.21Q207.81 45.61 206.35 45.61Q203.96 45.61 202.64 44.85Q201.32 44.09 200.78 42.86Q200.24 41.63 200.24 37.67L200.24 22.75L197.02 22.75L197.02 19.34L200.24 19.34L200.24 12.92L204.61 10.28L204.61 19.34L209.03 19.34L209.03 22.75L204.61 22.75L204.61 37.92Q204.61 39.79 204.85 40.33Q205.08 40.87 205.60 41.19Q206.13 41.50 207.10 41.50Q207.84 41.50 209.03 41.33ZM227.12 45.26L227.12 9.47L231.52 9.47L231.52 45.26L227.12 45.26ZM238.35 14.53L238.35 9.47L242.75 9.47L242.75 14.53L238.35 14.53M238.35 45.26L238.35 19.34L242.75 19.34L242.75 45.26L238.35 45.26ZM256.64 45.26L246.78 19.34L251.42 19.34L256.98 34.86Q257.89 37.38 258.64 40.09Q259.23 38.04 260.28 35.16L266.04 19.34L270.56 19.34L260.74 45.26L256.64 45.26ZM292.19 36.91L296.73 37.48Q295.65 41.46 292.75 43.65Q289.84 45.85 285.33 45.85Q279.64 45.85 276.31 42.35Q272.97 38.84 272.97 32.52Q272.97 25.98 276.34 22.36Q279.71 18.75 285.08 18.75Q290.28 18.75 293.58 22.29Q296.88 25.83 296.88 32.25Q296.88 32.64 296.85 33.42L277.51 33.42Q277.76 37.70 279.93 39.97Q282.10 42.24 285.35 42.24Q287.77 42.24 289.48 40.97Q291.19 39.70 292.19 36.91M277.76 29.81L292.24 29.81Q291.94 26.54 290.58 24.90Q288.48 22.36 285.13 22.36Q282.10 22.36 280.04 24.39Q277.98 26.42 277.76 29.81ZM300.49 37.52L304.83 36.84Q305.20 39.45 306.87 40.84Q308.54 42.24 311.55 42.24Q314.58 42.24 316.04 41.00Q317.50 39.77 317.50 38.11Q317.50 36.62 316.21 35.77Q315.31 35.18 311.72 34.28Q306.88 33.06 305.02 32.17Q303.15 31.27 302.19 29.70Q301.22 28.13 301.22 26.22Q301.22 24.49 302.01 23.01Q302.81 21.53 304.17 20.56Q305.20 19.80 306.97 19.27Q308.74 18.75 310.77 18.75Q313.82 18.75 316.13 19.63Q318.43 20.51 319.53 22.01Q320.63 23.51 321.04 26.03L316.75 26.61Q316.46 24.61 315.05 23.49Q313.65 22.36 311.08 22.36Q308.06 22.36 306.76 23.36Q305.47 24.37 305.47 25.71Q305.47 26.56 306.01 27.25Q306.54 27.95 307.69 28.42Q308.35 28.66 311.57 29.54Q316.24 30.79 318.08 31.58Q319.92 32.37 320.97 33.89Q322.02 35.40 322.02 37.65Q322.02 39.84 320.74 41.78Q319.46 43.73 317.04 44.79Q314.62 45.85 311.57 45.85Q306.52 45.85 303.87 43.75Q301.22 41.65 300.49 37.52ZM336.84 41.33L337.48 45.21Q335.62 45.61 334.16 45.61Q331.76 45.61 330.44 44.85Q329.13 44.09 328.59 42.86Q328.05 41.63 328.05 37.67L328.05 22.75L324.83 22.75L324.83 19.34L328.05 19.34L328.05 12.92L332.42 10.28L332.42 19.34L336.84 19.34L336.84 22.75L332.42 22.75L332.42 37.92Q332.42 39.79 332.65 40.33Q332.89 40.87 333.41 41.19Q333.94 41.50 334.91 41.50Q335.64 41.50 336.84 41.33ZM341.09 45.26L341.09 19.34L345.04 19.34L345.04 23.27Q346.56 20.51 347.84 19.63Q349.12 18.75 350.66 18.75Q352.88 18.75 355.18 20.17L353.66 24.24Q352.05 23.29 350.44 23.29Q349.00 23.29 347.85 24.16Q346.70 25.02 346.22 26.56Q345.48 28.91 345.48 31.69L345.48 45.26L341.09 45.26ZM375.54 36.91L380.08 37.48Q379.00 41.46 376.10 43.65Q373.19 45.85 368.68 45.85Q362.99 45.85 359.66 42.35Q356.32 38.84 356.32 32.52Q356.32 25.98 359.69 22.36Q363.06 18.75 368.43 18.75Q373.63 18.75 376.93 22.29Q380.22 25.83 380.22 32.25Q380.22 32.64 380.20 33.42L360.86 33.42Q361.11 37.70 363.28 39.97Q365.45 42.24 368.70 42.24Q371.12 42.24 372.83 40.97Q374.54 39.70 375.54 36.91M361.11 29.81L375.59 29.81Q375.29 26.54 373.93 24.90Q371.83 22.36 368.48 22.36Q365.45 22.36 363.39 24.39Q361.33 26.42 361.11 29.81ZM402.51 42.07Q400.07 44.14 397.81 45.00Q395.56 45.85 392.97 45.85Q388.70 45.85 386.40 43.76Q384.11 41.67 384.11 38.43Q384.11 36.52 384.97 34.95Q385.84 33.37 387.24 32.42Q388.65 31.47 390.41 30.98Q391.70 30.64 394.31 30.32Q399.63 29.69 402.15 28.81Q402.17 27.91 402.17 27.66Q402.17 24.98 400.93 23.88Q399.24 22.39 395.92 22.39Q392.82 22.39 391.35 23.47Q389.87 24.56 389.16 27.32L384.86 26.73Q385.45 23.97 386.79 22.28Q388.13 20.58 390.67 19.67Q393.21 18.75 396.56 18.75Q399.88 18.75 401.95 19.53Q404.03 20.31 405.00 21.50Q405.98 22.68 406.37 24.49Q406.59 25.61 406.59 28.54L406.59 34.40Q406.59 40.53 406.87 42.15Q407.15 43.77 407.98 45.26L403.39 45.26Q402.71 43.90 402.51 42.07M402.15 32.25Q399.76 33.23 394.97 33.91Q392.26 34.30 391.14 34.79Q390.01 35.28 389.40 36.22Q388.79 37.16 388.79 38.31Q388.79 40.06 390.12 41.24Q391.46 42.41 394.02 42.41Q396.56 42.41 398.54 41.30Q400.51 40.19 401.44 38.26Q402.15 36.77 402.15 33.86L402.15 32.25ZM413.40 45.26L413.40 19.34L417.33 19.34L417.33 22.97Q418.55 21.07 420.58 19.91Q422.61 18.75 425.20 18.75Q428.08 18.75 429.92 19.95Q431.76 21.14 432.52 23.29Q435.60 18.75 440.53 18.75Q444.38 18.75 446.46 20.89Q448.54 23.02 448.54 27.47L448.54 45.26L444.17 45.26L444.17 28.93Q444.17 26.29 443.74 25.13Q443.31 23.97 442.19 23.27Q441.06 22.56 439.55 22.56Q436.82 22.56 435.01 24.38Q433.20 26.20 433.20 30.20L433.20 45.26L428.81 45.26L428.81 28.42Q428.81 25.49 427.73 24.02Q426.66 22.56 424.22 22.56Q422.36 22.56 420.79 23.54Q419.21 24.51 418.51 26.39Q417.80 28.27 417.80 31.81L417.80 45.26L413.40 45.26ZM469.75 45.26L469.75 9.47L493.90 9.47L493.90 13.70L474.49 13.70L474.49 24.78L491.28 24.78L491.28 29.00L474.49 29.00L474.49 45.26L469.75 45.26ZM516.41 42.07Q513.96 44.14 511.71 45.00Q509.45 45.85 506.86 45.85Q502.59 45.85 500.29 43.76Q498.00 41.67 498.00 38.43Q498.00 36.52 498.86 34.95Q499.73 33.37 501.14 32.42Q502.54 31.47 504.30 30.98Q505.59 30.64 508.20 30.32Q513.53 29.69 516.04 28.81Q516.06 27.91 516.06 27.66Q516.06 24.98 514.82 23.88Q513.13 22.39 509.81 22.39Q506.71 22.39 505.24 23.47Q503.76 24.56 503.05 27.32L498.75 26.73Q499.34 23.97 500.68 22.28Q502.03 20.58 504.57 19.67Q507.10 18.75 510.45 18.75Q513.77 18.75 515.84 19.53Q517.92 20.31 518.90 21.50Q519.87 22.68 520.26 24.49Q520.48 25.61 520.48 28.54L520.48 34.40Q520.48 40.53 520.76 42.15Q521.04 43.77 521.88 45.26L517.29 45.26Q516.60 43.90 516.41 42.07M516.04 32.25Q513.65 33.23 508.86 33.91Q506.15 34.30 505.03 34.79Q503.91 35.28 503.30 36.22Q502.69 37.16 502.69 38.31Q502.69 40.06 504.02 41.24Q505.35 42.41 507.91 42.41Q510.45 42.41 512.43 41.30Q514.40 40.19 515.33 38.26Q516.04 36.77 516.04 33.86L516.04 32.25ZM544.21 35.77L548.54 36.33Q547.83 40.80 544.91 43.32Q541.99 45.85 537.74 45.85Q532.42 45.85 529.19 42.37Q525.95 38.89 525.95 32.40Q525.95 28.20 527.34 25.05Q528.74 21.90 531.58 20.32Q534.42 18.75 537.77 18.75Q541.99 18.75 544.68 20.89Q547.36 23.02 548.12 26.95L543.85 27.61Q543.24 25 541.69 23.68Q540.14 22.36 537.94 22.36Q534.62 22.36 532.54 24.74Q530.47 27.12 530.47 32.28Q530.47 37.50 532.47 39.87Q534.47 42.24 537.70 42.24Q540.28 42.24 542.02 40.65Q543.75 39.06 544.21 35.77ZM570.04 36.91L574.58 37.48Q573.51 41.46 570.61 43.65Q567.70 45.85 563.18 45.85Q557.50 45.85 554.16 42.35Q550.83 38.84 550.83 32.52Q550.83 25.98 554.20 22.36Q557.57 18.75 562.94 18.75Q568.14 18.75 571.44 22.29Q574.73 25.83 574.73 32.25Q574.73 32.64 574.71 33.42L555.37 33.42Q555.62 37.70 557.79 39.97Q559.96 42.24 563.21 42.24Q565.63 42.24 567.33 40.97Q569.04 39.70 570.04 36.91M555.62 29.81L570.09 29.81Q569.80 26.54 568.43 24.90Q566.33 22.36 562.99 22.36Q559.96 22.36 557.90 24.39Q555.83 26.42 555.62 29.81ZM584.16 45.26L580.08 45.26L580.08 9.47L584.47 9.47L584.47 22.24Q587.26 18.75 591.58 18.75Q593.97 18.75 596.11 19.71Q598.24 20.68 599.62 22.42Q601.00 24.17 601.78 26.64Q602.56 29.10 602.56 31.91Q602.56 38.57 599.27 42.21Q595.97 45.85 591.36 45.85Q586.77 45.85 584.16 42.02L584.16 45.26M584.11 32.10Q584.11 36.77 585.38 38.84Q587.45 42.24 590.99 42.24Q593.87 42.24 595.97 39.73Q598.07 37.23 598.07 32.28Q598.07 27.20 596.06 24.78Q594.04 22.36 591.19 22.36Q588.31 22.36 586.21 24.87Q584.11 27.37 584.11 32.10ZM606.27 32.30Q606.27 25.10 610.28 21.63Q613.62 18.75 618.43 18.75Q623.78 18.75 627.17 22.25Q630.57 25.76 630.57 31.93Q630.57 36.94 629.06 39.81Q627.56 42.68 624.69 44.26Q621.83 45.85 618.43 45.85Q612.99 45.85 609.63 42.36Q606.27 38.87 606.27 32.30M610.79 32.30Q610.79 37.28 612.96 39.76Q615.14 42.24 618.43 42.24Q621.70 42.24 623.88 39.75Q626.05 37.26 626.05 32.15Q626.05 27.34 623.86 24.87Q621.68 22.39 618.43 22.39Q615.14 22.39 612.96 24.85Q610.79 27.32 610.79 32.30ZM634.08 32.30Q634.08 25.10 638.09 21.63Q641.43 18.75 646.24 18.75Q651.59 18.75 654.98 22.25Q658.37 25.76 658.37 31.93Q658.37 36.94 656.87 39.81Q655.37 42.68 652.50 44.26Q649.63 45.85 646.24 45.85Q640.80 45.85 637.44 42.36Q634.08 38.87 634.08 32.30M638.60 32.30Q638.60 37.28 640.77 39.76Q642.94 42.24 646.24 42.24Q649.51 42.24 651.68 39.75Q653.86 37.26 653.86 32.15Q653.86 27.34 651.67 24.87Q649.49 22.39 646.24 22.39Q642.94 22.39 640.77 24.85Q638.60 27.32 638.60 32.30ZM663.55 45.26L663.55 9.47L667.94 9.47L667.94 29.88L678.34 19.34L684.03 19.34L674.12 28.96L685.03 45.26L679.61 45.26L671.04 32.01L667.94 34.99L667.94 45.26L663.55 45.26Z"/></g></g></svg>