<svg xmlns="http://www.w3.org/2000/svg" viewBox="0 9.470000267028809 685.1099853515625 46.31999969482422" data-asc="0.9052734375"><g fill="#000000"><g fill="#000000" transform="translate(0, 0)"><path d="M11.79 45.26L11.79 13.70L0 13.70L0 9.47L28.37 9.47L28.37 13.70L16.53 13.70L16.53 45.26L11.79 45.26ZM49.58 42.07Q47.14 44.14 44.89 45.00Q42.63 45.85 40.04 45.85Q35.77 45.85 33.47 43.76Q31.18 41.67 31.18 38.43Q31.18 36.52 32.04 34.95Q32.91 33.37 34.31 32.42Q35.72 31.47 37.48 30.98Q38.77 30.64 41.38 30.32Q46.70 29.69 49.22 28.81Q49.24 27.91 49.24 27.66Q49.24 24.98 48.00 23.88Q46.31 22.39 42.99 22.39Q39.89 22.39 38.42 23.47Q36.94 24.56 36.23 27.32L31.93 26.73Q32.52 23.97 33.86 22.28Q35.21 20.58 37.74 19.67Q40.28 18.75 43.63 18.75Q46.95 18.75 49.02 19.53Q51.10 20.31 52.08 21.50Q53.05 22.68 53.44 24.49Q53.66 25.61 53.66 28.54L53.66 34.40Q53.66 40.53 53.94 42.15Q54.22 43.77 55.05 45.26L50.46 45.26Q49.78 43.90 49.58 42.07M49.22 32.25Q46.83 33.23 42.04 33.91Q39.33 34.30 38.21 34.79Q37.08 35.28 36.47 36.22Q35.86 37.16 35.86 38.31Q35.86 40.06 37.19 41.24Q38.53 42.41 41.09 42.41Q43.63 42.41 45.61 41.30Q47.58 40.19 48.51 38.26Q49.22 36.77 49.22 33.86L49.22 32.25M47.90 9.52L50.90 9.52Q50.54 12.57 48.67 14.21Q46.80 15.84 43.70 15.84Q40.58 15.84 38.71 14.22Q36.84 12.60 36.47 9.52L39.48 9.52Q39.82 11.18 40.83 12.00Q41.85 12.82 43.55 12.82Q45.53 12.82 46.55 12.02Q47.56 11.23 47.90 9.52ZM60.47 45.26L60.47 19.34L64.43 19.34L64.43 23.02Q67.29 18.75 72.68 18.75Q75.02 18.75 76.99 19.59Q78.96 20.43 79.93 21.80Q80.91 23.17 81.30 25.05Q81.54 26.27 81.54 29.32L81.54 45.26L77.15 45.26L77.15 29.49Q77.15 26.81 76.64 25.48Q76.12 24.15 74.82 23.35Q73.51 22.56 71.75 22.56Q68.95 22.56 66.91 24.34Q64.87 26.12 64.87 31.10L64.87 45.26L60.47 45.26ZM87.48 47.41L91.75 48.05Q92.02 50.02 93.24 50.93Q94.87 52.15 97.71 52.15Q100.76 52.15 102.42 50.93Q104.08 49.71 104.66 47.51Q105.00 46.17 104.98 41.87Q102.10 45.26 97.80 45.26Q92.46 45.26 89.53 41.41Q86.60 37.55 86.60 32.15Q86.60 28.44 87.94 25.31Q89.28 22.17 91.83 20.46Q94.38 18.75 97.83 18.75Q102.42 18.75 105.40 22.46L105.40 19.34L109.45 19.34L109.45 41.75Q109.45 47.80 108.22 50.33Q106.98 52.86 104.31 54.32Q101.64 55.79 97.73 55.79Q93.09 55.79 90.23 53.70Q87.38 51.61 87.48 47.41M91.11 31.84Q91.11 36.94 93.14 39.28Q95.17 41.63 98.22 41.63Q101.25 41.63 103.30 39.29Q105.35 36.96 105.35 31.98Q105.35 27.22 103.23 24.80Q101.12 22.39 98.14 22.39Q95.21 22.39 93.16 24.77Q91.11 27.15 91.11 31.84ZM129.98 45.26L129.98 19.34L133.91 19.34L133.91 22.97Q135.13 21.07 137.16 19.91Q139.18 18.75 141.77 18.75Q144.65 18.75 146.50 19.95Q148.34 21.14 149.10 23.29Q152.17 18.75 157.10 18.75Q160.96 18.75 163.04 20.89Q165.11 23.02 165.11 27.47L165.11 45.26L160.74 45.26L160.74 28.93Q160.74 26.29 160.31 25.13Q159.89 23.97 158.76 23.27Q157.64 22.56 156.13 22.56Q153.39 22.56 151.59 24.38Q149.78 26.20 149.78 30.20L149.78 45.26L145.39 45.26L145.39 28.42Q145.39 25.49 144.31 24.02Q143.24 22.56 140.80 22.56Q138.94 22.56 137.37 23.54Q135.79 24.51 135.08 26.39Q134.38 28.27 134.38 31.81L134.38 45.26L129.98 45.26ZM189.38 36.91L193.92 37.48Q192.85 41.46 189.94 43.65Q187.04 45.85 182.52 45.85Q176.83 45.85 173.50 42.35Q170.17 38.84 170.17 32.52Q170.17 25.98 173.54 22.36Q176.90 18.75 182.28 18.75Q187.48 18.75 190.77 22.29Q194.07 25.83 194.07 32.25Q194.07 32.64 194.04 33.42L174.71 33.42Q174.95 37.70 177.12 39.97Q179.30 42.24 182.54 42.24Q184.96 42.24 186.67 40.97Q188.38 39.70 189.38 36.91M174.95 29.81L189.43 29.81Q189.14 26.54 187.77 24.90Q185.67 22.36 182.32 22.36Q179.30 22.36 177.23 24.39Q175.17 26.42 174.95 29.81ZM199.44 45.26L199.44 19.34L203.37 19.34L203.37 22.97Q204.59 21.07 206.62 19.91Q208.64 18.75 211.23 18.75Q214.11 18.75 215.95 19.95Q217.80 21.14 218.55 23.29Q221.63 18.75 226.56 18.75Q230.42 18.75 232.50 20.89Q234.57 23.02 234.57 27.47L234.57 45.26L230.20 45.26L230.20 28.93Q230.20 26.29 229.77 25.13Q229.35 23.97 228.22 23.27Q227.10 22.56 225.59 22.56Q222.85 22.56 221.04 24.38Q219.24 26.20 219.24 30.20L219.24 45.26L214.84 45.26L214.84 28.42Q214.84 25.49 213.77 24.02Q212.70 22.56 210.25 22.56Q208.40 22.56 206.82 23.54Q205.25 24.51 204.54 26.39Q203.83 28.27 203.83 31.81L203.83 45.26L199.44 45.26ZM245.14 45.26L241.06 45.26L241.06 9.47L245.46 9.47L245.46 22.24Q248.24 18.75 252.56 18.75Q254.96 18.75 257.09 19.71Q259.23 20.68 260.61 22.42Q261.99 24.17 262.77 26.64Q263.55 29.10 263.55 31.91Q263.55 38.57 260.25 42.21Q256.96 45.85 252.34 45.85Q247.75 45.85 245.14 42.02L245.14 45.26M245.09 32.10Q245.09 36.77 246.36 38.84Q248.44 42.24 251.98 42.24Q254.86 42.24 256.96 39.73Q259.06 37.23 259.06 32.28Q259.06 27.20 257.04 24.78Q255.03 22.36 252.17 22.36Q249.29 22.36 247.19 24.87Q245.09 27.37 245.09 32.10ZM286.65 36.91L291.19 37.48Q290.11 41.46 287.21 43.65Q284.30 45.85 279.79 45.85Q274.10 45.85 270.76 42.35Q267.43 38.84 267.43 32.52Q267.43 25.98 270.80 22.36Q274.17 18.75 279.54 18.75Q284.74 18.75 288.04 22.29Q291.33 25.83 291.33 32.25Q291.33 32.64 291.31 33.42L271.97 33.42Q272.22 37.70 274.39 39.97Q276.56 42.24 279.81 42.24Q282.23 42.24 283.94 40.97Q285.64 39.70 286.65 36.91M272.22 29.81L286.69 29.81Q286.40 26.54 285.03 24.90Q282.93 22.36 279.59 22.36Q276.56 22.36 274.50 24.39Q272.44 26.42 272.22 29.81ZM296.66 45.26L296.66 19.34L300.61 19.34L300.61 23.27Q302.12 20.51 303.41 19.63Q304.69 18.75 306.23 18.75Q308.45 18.75 310.74 20.17L309.23 24.24Q307.62 23.29 306.01 23.29Q304.57 23.29 303.42 24.16Q302.27 25.02 301.78 26.56Q301.05 28.91 301.05 31.69L301.05 45.26L296.66 45.26ZM326.44 47.41L330.71 48.05Q330.98 50.02 332.20 50.93Q333.84 52.15 336.67 52.15Q339.72 52.15 341.38 50.93Q343.04 49.71 343.63 47.51Q343.97 46.17 343.95 41.87Q341.06 45.26 336.77 45.26Q331.42 45.26 328.49 41.41Q325.56 37.55 325.56 32.15Q325.56 28.44 326.90 25.31Q328.25 22.17 330.80 20.46Q333.35 18.75 336.79 18.75Q341.38 18.75 344.36 22.46L344.36 19.34L348.41 19.34L348.41 41.75Q348.41 47.80 347.18 50.33Q345.95 52.86 343.27 54.32Q340.60 55.79 336.69 55.79Q332.06 55.79 329.20 53.70Q326.34 51.61 326.44 47.41M330.08 31.84Q330.08 36.94 332.10 39.28Q334.13 41.63 337.18 41.63Q340.21 41.63 342.26 39.29Q344.31 36.96 344.31 31.98Q344.31 27.22 342.20 24.80Q340.09 22.39 337.11 22.39Q334.18 22.39 332.13 24.77Q330.08 27.15 330.08 31.84ZM355.00 45.26L355.00 19.34L358.96 19.34L358.96 23.27Q360.47 20.51 361.76 19.63Q363.04 18.75 364.58 18.75Q366.80 18.75 369.09 20.17L367.58 24.24Q365.97 23.29 364.36 23.29Q362.92 23.29 361.77 24.16Q360.62 25.02 360.13 26.56Q359.40 28.91 359.40 31.69L359.40 45.26L355.00 45.26ZM370.07 32.30Q370.07 25.10 374.07 21.63Q377.42 18.75 382.23 18.75Q387.57 18.75 390.97 22.25Q394.36 25.76 394.36 31.93Q394.36 36.94 392.86 39.81Q391.36 42.68 388.49 44.26Q385.62 45.85 382.23 45.85Q376.78 45.85 373.43 42.36Q370.07 38.87 370.07 32.30M374.58 32.30Q374.58 37.28 376.76 39.76Q378.93 42.24 382.23 42.24Q385.50 42.24 387.67 39.75Q389.84 37.26 389.84 32.15Q389.84 27.34 387.66 24.87Q385.47 22.39 382.23 22.39Q378.93 22.39 376.76 24.85Q374.58 27.32 374.58 32.30ZM416.50 45.26L416.50 41.46Q413.48 45.85 408.28 45.85Q405.98 45.85 403.99 44.97Q402.00 44.09 401.04 42.76Q400.07 41.43 399.68 39.50Q399.41 38.21 399.41 35.40L399.41 19.34L403.81 19.34L403.81 33.72Q403.81 37.16 404.08 38.35Q404.49 40.09 405.83 41.08Q407.18 42.07 409.16 42.07Q411.13 42.07 412.87 41.05Q414.60 40.04 415.32 38.29Q416.04 36.55 416.04 33.23L416.04 19.34L420.43 19.34L420.43 45.26L416.50 45.26ZM427.32 55.20L427.32 19.34L431.32 19.34L431.32 22.71Q432.74 20.73 434.52 19.74Q436.30 18.75 438.84 18.75Q442.16 18.75 444.70 20.46Q447.24 22.17 448.54 25.28Q449.83 28.39 449.83 32.10Q449.83 36.08 448.40 39.27Q446.97 42.46 444.25 44.15Q441.53 45.85 438.53 45.85Q436.33 45.85 434.58 44.92Q432.84 43.99 431.71 42.58L431.71 55.20L427.32 55.20M431.30 32.45Q431.30 37.45 433.33 39.84Q435.35 42.24 438.23 42.24Q441.16 42.24 443.25 39.76Q445.34 37.28 445.34 32.08Q445.34 27.12 443.30 24.66Q441.26 22.19 438.43 22.19Q435.62 22.19 433.46 24.82Q431.30 27.44 431.30 32.45ZM469.82 45.26L469.82 9.47L493.97 9.47L493.97 13.70L474.56 13.70L474.56 24.78L491.36 24.78L491.36 29.00L474.56 29.00L474.56 45.26L469.82 45.26ZM516.48 42.07Q514.04 44.14 511.78 45.00Q509.52 45.85 506.93 45.85Q502.66 45.85 500.37 43.76Q498.07 41.67 498.07 38.43Q498.07 36.52 498.94 34.95Q499.80 33.37 501.21 32.42Q502.61 31.47 504.37 30.98Q505.66 30.64 508.28 30.32Q513.60 29.69 516.11 28.81Q516.14 27.91 516.14 27.66Q516.14 24.98 514.89 23.88Q513.21 22.39 509.89 22.39Q506.79 22.39 505.31 23.47Q503.83 24.56 503.13 27.32L498.83 26.73Q499.41 23.97 500.76 22.28Q502.10 20.58 504.64 19.67Q507.18 18.75 510.52 18.75Q513.84 18.75 515.92 19.53Q517.99 20.31 518.97 21.50Q519.95 22.68 520.34 24.49Q520.56 25.61 520.56 28.54L520.56 34.40Q520.56 40.53 520.84 42.15Q521.12 43.77 521.95 45.26L517.36 45.26Q516.67 43.90 516.48 42.07M516.11 32.25Q513.72 33.23 508.94 33.91Q506.23 34.30 505.10 34.79Q503.98 35.28 503.37 36.22Q502.76 37.16 502.76 38.31Q502.76 40.06 504.09 41.24Q505.42 42.41 507.98 42.41Q510.52 42.41 512.50 41.30Q514.48 40.19 515.41 38.26Q516.11 36.77 516.11 33.86L516.11 32.25ZM544.29 35.77L548.61 36.33Q547.90 40.80 544.98 43.32Q542.07 45.85 537.82 45.85Q532.50 45.85 529.26 42.37Q526.03 38.89 526.03 32.40Q526.03 28.20 527.42 25.05Q528.81 21.90 531.65 20.32Q534.50 18.75 537.84 18.75Q542.07 18.75 544.75 20.89Q547.44 23.02 548.19 26.95L543.92 27.61Q543.31 25 541.76 23.68Q540.21 22.36 538.01 22.36Q534.69 22.36 532.62 24.74Q530.54 27.12 530.54 32.28Q530.54 37.50 532.54 39.87Q534.55 42.24 537.77 42.24Q540.36 42.24 542.09 40.65Q543.82 39.06 544.29 35.77ZM570.12 36.91L574.66 37.48Q573.58 41.46 570.68 43.65Q567.77 45.85 563.26 45.85Q557.57 45.85 554.24 42.35Q550.90 38.84 550.90 32.52Q550.90 25.98 554.27 22.36Q557.64 18.75 563.01 18.75Q568.21 18.75 571.51 22.29Q574.80 25.83 574.80 32.25Q574.80 32.64 574.78 33.42L555.44 33.42Q555.69 37.70 557.86 39.97Q560.03 42.24 563.28 42.24Q565.70 42.24 567.41 40.97Q569.12 39.70 570.12 36.91M555.69 29.81L570.17 29.81Q569.87 26.54 568.51 24.90Q566.41 22.36 563.06 22.36Q560.03 22.36 557.97 24.39Q555.91 26.42 555.69 29.81ZM584.23 45.26L580.15 45.26L580.15 9.47L584.55 9.47L584.55 22.24Q587.33 18.75 591.65 18.75Q594.04 18.75 596.18 19.71Q598.32 20.68 599.69 22.42Q601.07 24.17 601.86 26.64Q602.64 29.10 602.64 31.91Q602.64 38.57 599.34 42.21Q596.04 45.85 591.43 45.85Q586.84 45.85 584.23 42.02L584.23 45.26M584.18 32.10Q584.18 36.77 585.45 38.84Q587.52 42.24 591.06 42.24Q593.95 42.24 596.04 39.73Q598.14 37.23 598.14 32.28Q598.14 27.20 596.13 24.78Q594.12 22.36 591.26 22.36Q588.38 22.36 586.28 24.87Q584.18 27.37 584.18 32.10ZM606.35 32.30Q606.35 25.10 610.35 21.63Q613.70 18.75 618.51 18.75Q623.85 18.75 627.25 22.25Q630.64 25.76 630.64 31.93Q630.64 36.94 629.14 39.81Q627.64 42.68 624.77 44.26Q621.90 45.85 618.51 45.85Q613.06 45.85 609.70 42.36Q606.35 38.87 606.35 32.30M610.86 32.30Q610.86 37.28 613.04 39.76Q615.21 42.24 618.51 42.24Q621.78 42.24 623.95 39.75Q626.12 37.26 626.12 32.15Q626.12 27.34 623.94 24.87Q621.75 22.39 618.51 22.39Q615.21 22.39 613.04 24.85Q610.86 27.32 610.86 32.30ZM634.16 32.30Q634.16 25.10 638.16 21.63Q641.50 18.75 646.31 18.75Q651.66 18.75 655.05 22.25Q658.45 25.76 658.45 31.93Q658.45 36.94 656.95 39.81Q655.44 42.68 652.58 44.26Q649.71 45.85 646.31 45.85Q640.87 45.85 637.51 42.36Q634.16 38.87 634.16 32.30M638.67 32.30Q638.67 37.28 640.84 39.76Q643.02 42.24 646.31 42.24Q649.58 42.24 651.76 39.75Q653.93 37.26 653.93 32.15Q653.93 27.34 651.75 24.87Q649.56 22.39 646.31 22.39Q643.02 22.39 640.84 24.85Q638.67 27.32 638.67 32.30ZM663.62 45.26L663.62 9.47L668.02 9.47L668.02 29.88L678.42 19.34L684.11 19.34L674.19 28.96L685.11 45.26L679.69 45.26L671.12 32.01L668.02 34.99L668.02 45.26L663.62 45.26Z"/></g></g></svg>