<svg xmlns="http://www.w3.org/2000/svg" viewBox="0 9.279999732971191 676.9299926757812 46.51000213623047" data-asc="0.9052734375"><g fill="#000000"><g fill="#000000" transform="translate(0, 0)"><path d="M11.79 45.26L11.79 13.70L0 13.70L0 9.47L28.37 9.47L28.37 13.70L16.53 13.70L16.53 45.26L11.79 45.26ZM49.58 42.07Q47.14 44.14 44.89 45.00Q42.63 45.85 40.04 45.85Q35.77 45.85 33.47 43.76Q31.18 41.67 31.18 38.43Q31.18 36.52 32.04 34.95Q32.91 33.37 34.31 32.42Q35.72 31.47 37.48 30.98Q38.77 30.64 41.38 30.32Q46.70 29.69 49.22 28.81Q49.24 27.91 49.24 27.66Q49.24 24.98 48.00 23.88Q46.31 22.39 42.99 22.39Q39.89 22.39 38.42 23.47Q36.94 24.56 36.23 27.32L31.93 26.73Q32.52 23.97 33.86 22.28Q35.21 20.58 37.74 19.67Q40.28 18.75 43.63 18.75Q46.95 18.75 49.02 19.53Q51.10 20.31 52.08 21.50Q53.05 22.68 53.44 24.49Q53.66 25.61 53.66 28.54L53.66 34.40Q53.66 40.53 53.94 42.15Q54.22 43.77 55.05 45.26L50.46 45.26Q49.78 43.90 49.58 42.07M49.22 32.25Q46.83 33.23 42.04 33.91Q39.33 34.30 38.21 34.79Q37.08 35.28 36.47 36.22Q35.86 37.16 35.86 38.31Q35.86 40.06 37.19 41.24Q38.53 42.41 41.09 42.41Q43.63 42.41 45.61 41.30Q47.58 40.19 48.51 38.26Q49.22 36.77 49.22 33.86L49.22 32.25M47.90 9.52L50.90 9.52Q50.54 12.57 48.67 14.21Q46.80 15.84 43.70 15.84Q40.58 15.84 38.71 14.22Q36.84 12.60 36.47 9.52L39.48 9.52Q39.82 11.18 40.83 12.00Q41.85 12.82 43.55 12.82Q45.53 12.82 46.55 12.02Q47.56 11.23 47.90 9.52ZM60.47 45.26L60.47 19.34L64.43 19.34L64.43 23.02Q67.29 18.75 72.68 18.75Q75.02 18.75 76.99 19.59Q78.96 20.43 79.93 21.80Q80.91 23.17 81.30 25.05Q81.54 26.27 81.54 29.32L81.54 45.26L77.15 45.26L77.15 29.49Q77.15 26.81 76.64 25.48Q76.12 24.15 74.82 23.35Q73.51 22.56 71.75 22.56Q68.95 22.56 66.91 24.34Q64.87 26.12 64.87 31.10L64.87 45.26L60.47 45.26ZM87.48 47.41L91.75 48.05Q92.02 50.02 93.24 50.93Q94.87 52.15 97.71 52.15Q100.76 52.15 102.42 50.93Q104.08 49.71 104.66 47.51Q105.00 46.17 104.98 41.87Q102.10 45.26 97.80 45.26Q92.46 45.26 89.53 41.41Q86.60 37.55 86.60 32.15Q86.60 28.44 87.94 25.31Q89.28 22.17 91.83 20.46Q94.38 18.75 97.83 18.75Q102.42 18.75 105.40 22.46L105.40 19.34L109.45 19.34L109.45 41.75Q109.45 47.80 108.22 50.33Q106.98 52.86 104.31 54.32Q101.64 55.79 97.73 55.79Q93.09 55.79 90.23 53.70Q87.38 51.61 87.48 47.41M91.11 31.84Q91.11 36.94 93.14 39.28Q95.17 41.63 98.22 41.63Q101.25 41.63 103.30 39.29Q105.35 36.96 105.35 31.98Q105.35 27.22 103.23 24.80Q101.12 22.39 98.14 22.39Q95.21 22.39 93.16 24.77Q91.11 27.15 91.11 31.84ZM146.51 15.50L138.06 15.50L138.06 12.28L146.51 12.28L146.51 9.47L150.88 9.47L150.88 12.28L154.42 12.28L154.42 15.50L150.88 15.50L150.88 45.26L146.80 45.26L146.80 41.99Q144.34 45.85 139.55 45.85Q136.45 45.85 133.85 44.14Q131.25 42.43 129.82 39.37Q128.39 36.30 128.39 32.32Q128.39 28.44 129.69 25.28Q130.98 22.12 133.57 20.43Q136.16 18.75 139.36 18.75Q141.70 18.75 143.53 19.74Q145.36 20.73 146.51 22.31L146.51 15.50M132.91 32.32Q132.91 37.30 135.01 39.77Q137.11 42.24 139.97 42.24Q142.85 42.24 144.86 39.88Q146.88 37.52 146.88 32.69Q146.88 27.37 144.82 24.88Q142.77 22.39 139.77 22.39Q136.84 22.39 134.88 24.78Q132.91 27.17 132.91 32.32ZM174.71 42.07Q172.27 44.14 170.01 45.00Q167.75 45.85 165.16 45.85Q160.89 45.85 158.59 43.76Q156.30 41.67 156.30 38.43Q156.30 36.52 157.17 34.95Q158.03 33.37 159.44 32.42Q160.84 31.47 162.60 30.98Q163.89 30.64 166.50 30.32Q171.83 29.69 174.34 28.81Q174.37 27.91 174.37 27.66Q174.37 24.98 173.12 23.88Q171.44 22.39 168.12 22.39Q165.01 22.39 163.54 23.47Q162.06 24.56 161.35 27.32L157.06 26.73Q157.64 23.97 158.98 22.28Q160.33 20.58 162.87 19.67Q165.41 18.75 168.75 18.75Q172.07 18.75 174.15 19.53Q176.22 20.31 177.20 21.50Q178.17 22.68 178.56 24.49Q178.78 25.61 178.78 28.54L178.78 34.40Q178.78 40.53 179.06 42.15Q179.35 43.77 180.18 45.26L175.59 45.26Q174.90 43.90 174.71 42.07M174.34 32.25Q171.95 33.23 167.16 33.91Q164.45 34.30 163.33 34.79Q162.21 35.28 161.60 36.22Q160.99 37.16 160.99 38.31Q160.99 40.06 162.32 41.24Q163.65 42.41 166.21 42.41Q168.75 42.41 170.73 41.30Q172.71 40.19 173.63 38.26Q174.34 36.77 174.34 33.86L174.34 32.25M165.80 16.11L169.04 9.28L174.80 9.28L169.43 16.11L165.80 16.11ZM185.60 45.26L185.60 19.34L189.55 19.34L189.55 23.02Q192.41 18.75 197.80 18.75Q200.15 18.75 202.11 19.59Q204.08 20.43 205.05 21.80Q206.03 23.17 206.42 25.05Q206.67 26.27 206.67 29.32L206.67 45.26L202.27 45.26L202.27 29.49Q202.27 26.81 201.76 25.48Q201.25 24.15 199.94 23.35Q198.63 22.56 196.88 22.56Q194.07 22.56 192.03 24.34Q189.99 26.12 189.99 31.10L189.99 45.26L185.60 45.26ZM213.40 45.26L213.40 9.47L217.80 9.47L217.80 22.31Q220.87 18.75 225.56 18.75Q228.44 18.75 230.57 19.89Q232.69 21.02 233.61 23.02Q234.52 25.02 234.52 28.83L234.52 45.26L230.13 45.26L230.13 28.83Q230.13 25.54 228.70 24.04Q227.27 22.53 224.66 22.53Q222.71 22.53 220.98 23.55Q219.26 24.56 218.53 26.29Q217.80 28.03 217.80 31.08L217.80 45.26L213.40 45.26ZM254.30 47.41L258.57 48.05Q258.84 50.02 260.06 50.93Q261.69 52.15 264.53 52.15Q267.58 52.15 269.24 50.93Q270.90 49.71 271.48 47.51Q271.83 46.17 271.80 41.87Q268.92 45.26 264.62 45.26Q259.28 45.26 256.35 41.41Q253.42 37.55 253.42 32.15Q253.42 28.44 254.76 25.31Q256.10 22.17 258.65 20.46Q261.21 18.75 264.65 18.75Q269.24 18.75 272.22 22.46L272.22 19.34L276.27 19.34L276.27 41.75Q276.27 47.80 275.04 50.33Q273.80 52.86 271.13 54.32Q268.46 55.79 264.55 55.79Q259.91 55.79 257.06 53.70Q254.20 51.61 254.30 47.41M257.93 31.84Q257.93 36.94 259.96 39.28Q261.99 41.63 265.04 41.63Q268.07 41.63 270.12 39.29Q272.17 36.96 272.17 31.98Q272.17 27.22 270.06 24.80Q267.94 22.39 264.97 22.39Q262.04 22.39 259.99 24.77Q257.93 27.15 257.93 31.84ZM282.93 14.53L282.93 9.47L287.33 9.47L287.33 14.53L282.93 14.53M282.93 45.26L282.93 19.34L287.33 19.34L287.33 45.26L282.93 45.26ZM310.94 42.07Q308.50 44.14 306.24 45.00Q303.98 45.85 301.39 45.85Q297.12 45.85 294.82 43.76Q292.53 41.67 292.53 38.43Q292.53 36.52 293.40 34.95Q294.26 33.37 295.67 32.42Q297.07 31.47 298.83 30.98Q300.12 30.64 302.73 30.32Q308.06 29.69 310.57 28.81Q310.60 27.91 310.60 27.66Q310.60 24.98 309.35 23.88Q307.67 22.39 304.35 22.39Q301.25 22.39 299.77 23.47Q298.29 24.56 297.58 27.32L293.29 26.73Q293.87 23.97 295.21 22.28Q296.56 20.58 299.10 19.67Q301.64 18.75 304.98 18.75Q308.30 18.75 310.38 19.53Q312.45 20.31 313.43 21.50Q314.40 22.68 314.79 24.49Q315.01 25.61 315.01 28.54L315.01 34.40Q315.01 40.53 315.30 42.15Q315.58 43.77 316.41 45.26L311.82 45.26Q311.13 43.90 310.94 42.07M310.57 32.25Q308.18 33.23 303.39 33.91Q300.68 34.30 299.56 34.79Q298.44 35.28 297.83 36.22Q297.22 37.16 297.22 38.31Q297.22 40.06 298.55 41.24Q299.88 42.41 302.44 42.41Q304.98 42.41 306.96 41.30Q308.94 40.19 309.86 38.26Q310.57 36.77 310.57 33.86L310.57 32.25M302.03 16.11L305.27 9.28L311.04 9.28L305.66 16.11L302.03 16.11ZM335.72 55.20L335.72 19.34L339.72 19.34L339.72 22.71Q341.14 20.73 342.92 19.74Q344.70 18.75 347.24 18.75Q350.56 18.75 353.10 20.46Q355.64 22.17 356.93 25.28Q358.23 28.39 358.23 32.10Q358.23 36.08 356.80 39.27Q355.37 42.46 352.65 44.15Q349.93 45.85 346.92 45.85Q344.73 45.85 342.98 44.92Q341.24 43.99 340.11 42.58L340.11 55.20L335.72 55.20M339.70 32.45Q339.70 37.45 341.72 39.84Q343.75 42.24 346.63 42.24Q349.56 42.24 351.65 39.76Q353.74 37.28 353.74 32.08Q353.74 27.12 351.70 24.66Q349.66 22.19 346.83 22.19Q344.02 22.19 341.86 24.82Q339.70 27.44 339.70 32.45ZM380.44 42.07Q378.00 44.14 375.74 45.00Q373.49 45.85 370.90 45.85Q366.63 45.85 364.33 43.76Q362.04 41.67 362.04 38.43Q362.04 36.52 362.90 34.95Q363.77 33.37 365.17 32.42Q366.58 31.47 368.33 30.98Q369.63 30.64 372.24 30.32Q377.56 29.69 380.08 28.81Q380.10 27.91 380.10 27.66Q380.10 24.98 378.86 23.88Q377.17 22.39 373.85 22.39Q370.75 22.39 369.27 23.47Q367.80 24.56 367.09 27.32L362.79 26.73Q363.38 23.97 364.72 22.28Q366.06 20.58 368.60 19.67Q371.14 18.75 374.49 18.75Q377.81 18.75 379.88 19.53Q381.96 20.31 382.93 21.50Q383.91 22.68 384.30 24.49Q384.52 25.61 384.52 28.54L384.52 34.40Q384.52 40.53 384.80 42.15Q385.08 43.77 385.91 45.26L381.32 45.26Q380.64 43.90 380.44 42.07M380.08 32.25Q377.69 33.23 372.90 33.91Q370.19 34.30 369.07 34.79Q367.94 35.28 367.33 36.22Q366.72 37.16 366.72 38.31Q366.72 40.06 368.05 41.24Q369.38 42.41 371.95 42.41Q374.49 42.41 376.46 41.30Q378.44 40.19 379.37 38.26Q380.08 36.77 380.08 33.86L380.08 32.25ZM390.53 47.41L394.80 48.05Q395.07 50.02 396.29 50.93Q397.92 52.15 400.76 52.15Q403.81 52.15 405.47 50.93Q407.13 49.71 407.71 47.51Q408.06 46.17 408.03 41.87Q405.15 45.26 400.85 45.26Q395.51 45.26 392.58 41.41Q389.65 37.55 389.65 32.15Q389.65 28.44 390.99 25.31Q392.33 22.17 394.89 20.46Q397.44 18.75 400.88 18.75Q405.47 18.75 408.45 22.46L408.45 19.34L412.50 19.34L412.50 41.75Q412.50 47.80 411.27 50.33Q410.03 52.86 407.36 54.32Q404.69 55.79 400.78 55.79Q396.14 55.79 393.29 53.70Q390.43 51.61 390.53 47.41M394.17 31.84Q394.17 36.94 396.19 39.28Q398.22 41.63 401.27 41.63Q404.30 41.63 406.35 39.29Q408.40 36.96 408.40 31.98Q408.40 27.22 406.29 24.80Q404.17 22.39 401.20 22.39Q398.27 22.39 396.22 24.77Q394.17 27.15 394.17 31.84ZM436.89 36.91L441.43 37.48Q440.36 41.46 437.45 43.65Q434.55 45.85 430.03 45.85Q424.34 45.85 421.01 42.35Q417.68 38.84 417.68 32.52Q417.68 25.98 421.04 22.36Q424.41 18.75 429.79 18.75Q434.99 18.75 438.28 22.29Q441.58 25.83 441.58 32.25Q441.58 32.64 441.55 33.42L422.22 33.42Q422.46 37.70 424.63 39.97Q426.81 42.24 430.05 42.24Q432.47 42.24 434.18 40.97Q435.89 39.70 436.89 36.91M422.46 29.81L436.94 29.81Q436.65 26.54 435.28 24.90Q433.18 22.36 429.83 22.36Q426.81 22.36 424.74 24.39Q422.68 26.42 422.46 29.81ZM461.65 45.26L461.65 9.47L485.79 9.47L485.79 13.70L466.38 13.70L466.38 24.78L483.18 24.78L483.18 29.00L466.38 29.00L466.38 45.26L461.65 45.26ZM508.30 42.07Q505.86 44.14 503.60 45.00Q501.34 45.85 498.75 45.85Q494.48 45.85 492.19 43.76Q489.89 41.67 489.89 38.43Q489.89 36.52 490.76 34.95Q491.63 33.37 493.03 32.42Q494.43 31.47 496.19 30.98Q497.49 30.64 500.10 30.32Q505.42 29.69 507.93 28.81Q507.96 27.91 507.96 27.66Q507.96 24.98 506.71 23.88Q505.03 22.39 501.71 22.39Q498.61 22.39 497.13 23.47Q495.65 24.56 494.95 27.32L490.65 26.73Q491.24 23.97 492.58 22.28Q493.92 20.58 496.46 19.67Q499.00 18.75 502.34 18.75Q505.66 18.75 507.74 19.53Q509.81 20.31 510.79 21.50Q511.77 22.68 512.16 24.49Q512.38 25.61 512.38 28.54L512.38 34.40Q512.38 40.53 512.66 42.15Q512.94 43.77 513.77 45.26L509.18 45.26Q508.50 43.90 508.30 42.07M507.93 32.25Q505.54 33.23 500.76 33.91Q498.05 34.30 496.92 34.79Q495.80 35.28 495.19 36.22Q494.58 37.16 494.58 38.31Q494.58 40.06 495.91 41.24Q497.24 42.41 499.80 42.41Q502.34 42.41 504.32 41.30Q506.30 40.19 507.23 38.26Q507.93 36.77 507.93 33.86L507.93 32.25ZM536.11 35.77L540.43 36.33Q539.72 40.80 536.80 43.32Q533.89 45.85 529.64 45.85Q524.32 45.85 521.08 42.37Q517.85 38.89 517.85 32.40Q517.85 28.20 519.24 25.05Q520.63 21.90 523.47 20.32Q526.32 18.75 529.66 18.75Q533.89 18.75 536.57 20.89Q539.26 23.02 540.01 26.95L535.74 27.61Q535.13 25 533.58 23.68Q532.03 22.36 529.83 22.36Q526.51 22.36 524.44 24.74Q522.36 27.12 522.36 32.28Q522.36 37.50 524.37 39.87Q526.37 42.24 529.59 42.24Q532.18 42.24 533.91 40.65Q535.64 39.06 536.11 35.77ZM561.94 36.91L566.48 37.48Q565.41 41.46 562.50 43.65Q559.59 45.85 555.08 45.85Q549.39 45.85 546.06 42.35Q542.72 38.84 542.72 32.52Q542.72 25.98 546.09 22.36Q549.46 18.75 554.83 18.75Q560.03 18.75 563.33 22.29Q566.63 25.83 566.63 32.25Q566.63 32.64 566.60 33.42L547.27 33.42Q547.51 37.70 549.68 39.97Q551.86 42.24 555.10 42.24Q557.52 42.24 559.23 40.97Q560.94 39.70 561.94 36.91M547.51 29.81L561.99 29.81Q561.69 26.54 560.33 24.90Q558.23 22.36 554.88 22.36Q551.86 22.36 549.79 24.39Q547.73 26.42 547.51 29.81ZM576.05 45.26L571.97 45.26L571.97 9.47L576.37 9.47L576.37 22.24Q579.15 18.75 583.47 18.75Q585.86 18.75 588.00 19.71Q590.14 20.68 591.52 22.42Q592.90 24.17 593.68 26.64Q594.46 29.10 594.46 31.91Q594.46 38.57 591.16 42.21Q587.87 45.85 583.25 45.85Q578.66 45.85 576.05 42.02L576.05 45.26M576.00 32.10Q576.00 36.77 577.27 38.84Q579.35 42.24 582.89 42.24Q585.77 42.24 587.87 39.73Q589.97 37.23 589.97 32.28Q589.97 27.20 587.95 24.78Q585.94 22.36 583.08 22.36Q580.20 22.36 578.10 24.87Q576.00 27.37 576.00 32.10ZM598.17 32.30Q598.17 25.10 602.17 21.63Q605.52 18.75 610.33 18.75Q615.67 18.75 619.07 22.25Q622.46 25.76 622.46 31.93Q622.46 36.94 620.96 39.81Q619.46 42.68 616.59 44.26Q613.72 45.85 610.33 45.85Q604.88 45.85 601.53 42.36Q598.17 38.87 598.17 32.30M602.69 32.30Q602.69 37.28 604.86 39.76Q607.03 42.24 610.33 42.24Q613.60 42.24 615.77 39.75Q617.94 37.26 617.94 32.15Q617.94 27.34 615.76 24.87Q613.57 22.39 610.33 22.39Q607.03 22.39 604.86 24.85Q602.69 27.32 602.69 32.30ZM625.98 32.30Q625.98 25.10 629.98 21.63Q633.33 18.75 638.13 18.75Q643.48 18.75 646.88 22.25Q650.27 25.76 650.27 31.93Q650.27 36.94 648.77 39.81Q647.27 42.68 644.40 44.26Q641.53 45.85 638.13 45.85Q632.69 45.85 629.33 42.36Q625.98 38.87 625.98 32.30M630.49 32.30Q630.49 37.28 632.67 39.76Q634.84 42.24 638.13 42.24Q641.41 42.24 643.58 39.75Q645.75 37.26 645.75 32.15Q645.75 27.34 643.57 24.87Q641.38 22.39 638.13 22.39Q634.84 22.39 632.67 24.85Q630.49 27.32 630.49 32.30ZM655.44 45.26L655.44 9.47L659.84 9.47L659.84 29.88L670.24 19.34L675.93 19.34L666.02 28.96L676.93 45.26L671.51 45.26L662.94 32.01L659.84 34.99L659.84 45.26L655.44 45.26Z"/></g></g></svg>