<svg xmlns="http://www.w3.org/2000/svg" viewBox="0 7.468095302581787 518.3800048828125 48.32190704345703" data-asc="0.9052734375"><g fill="#000000"><g fill="#000000" transform="translate(0, 0)"><path d="M11.79 45.26L11.79 13.70L0 13.70L0 9.47L28.37 9.47L28.37 13.70L16.53 13.70L16.53 45.26L11.79 45.26ZM49.58 42.07Q47.14 44.14 44.89 45.00Q42.63 45.85 40.04 45.85Q35.77 45.85 33.47 43.76Q31.18 41.67 31.18 38.43Q31.18 36.52 32.04 34.95Q32.91 33.37 34.31 32.42Q35.72 31.47 37.48 30.98Q38.77 30.64 41.38 30.32Q46.70 29.69 49.22 28.81Q49.24 27.91 49.24 27.66Q49.24 24.98 48.00 23.88Q46.31 22.39 42.99 22.39Q39.89 22.39 38.42 23.47Q36.94 24.56 36.23 27.32L31.93 26.73Q32.52 23.97 33.86 22.28Q35.21 20.58 37.74 19.67Q40.28 18.75 43.63 18.75Q46.95 18.75 49.02 19.53Q51.10 20.31 52.08 21.50Q53.05 22.68 53.44 24.49Q53.66 25.61 53.66 28.54L53.66 34.40Q53.66 40.53 53.94 42.15Q54.22 43.77 55.05 45.26L50.46 45.26Q49.78 43.90 49.58 42.07M49.22 32.25Q46.83 33.23 42.04 33.91Q39.33 34.30 38.21 34.79Q37.08 35.28 36.47 36.22Q35.86 37.16 35.86 38.31Q35.86 40.06 37.19 41.24Q38.53 42.41 41.09 42.41Q43.63 42.41 45.61 41.30Q47.58 40.19 48.51 38.26Q49.22 36.77 49.22 33.86L49.22 32.25M47.90 9.52L50.90 9.52Q50.54 12.57 48.67 14.21Q46.80 15.84 43.70 15.84Q40.58 15.84 38.71 14.22Q36.84 12.60 36.47 9.52L39.48 9.52Q39.82 11.18 40.83 12.00Q41.85 12.82 43.55 12.82Q45.53 12.82 46.55 12.02Q47.56 11.23 47.90 9.52ZM60.47 45.26L60.47 19.34L64.43 19.34L64.43 23.02Q67.29 18.75 72.68 18.75Q75.02 18.75 76.99 19.59Q78.96 20.43 79.93 21.80Q80.91 23.17 81.30 25.05Q81.54 26.27 81.54 29.32L81.54 45.26L77.15 45.26L77.15 29.49Q77.15 26.81 76.64 25.48Q76.12 24.15 74.82 23.35Q73.51 22.56 71.75 22.56Q68.95 22.56 66.91 24.34Q64.87 26.12 64.87 31.10L64.87 45.26L60.47 45.26ZM87.48 47.41L91.75 48.05Q92.02 50.02 93.24 50.93Q94.87 52.15 97.71 52.15Q100.76 52.15 102.42 50.93Q104.08 49.71 104.66 47.51Q105.00 46.17 104.98 41.87Q102.10 45.26 97.80 45.26Q92.46 45.26 89.53 41.41Q86.60 37.55 86.60 32.15Q86.60 28.44 87.94 25.31Q89.28 22.17 91.83 20.46Q94.38 18.75 97.83 18.75Q102.42 18.75 105.40 22.46L105.40 19.34L109.45 19.34L109.45 41.75Q109.45 47.80 108.22 50.33Q106.98 52.86 104.31 54.32Q101.64 55.79 97.73 55.79Q93.09 55.79 90.23 53.70Q87.38 51.61 87.48 47.41M91.11 31.84Q91.11 36.94 93.14 39.28Q95.17 41.63 98.22 41.63Q101.25 41.63 103.30 39.29Q105.35 36.96 105.35 31.98Q105.35 27.22 103.23 24.80Q101.12 22.39 98.14 22.39Q95.21 22.39 93.16 24.77Q91.11 27.15 91.11 31.84ZM146.90 35.77L151.22 36.33Q150.51 40.80 147.60 43.32Q144.68 45.85 140.43 45.85Q135.11 45.85 131.87 42.37Q128.64 38.89 128.64 32.40Q128.64 28.20 130.03 25.05Q131.42 21.90 134.27 20.32Q137.11 18.75 140.45 18.75Q144.68 18.75 147.36 20.89Q150.05 23.02 150.81 26.95L146.53 27.61Q145.92 25 144.37 23.68Q142.82 22.36 140.63 22.36Q137.30 22.36 135.23 24.74Q133.15 27.12 133.15 32.28Q133.15 37.50 135.16 39.87Q137.16 42.24 140.38 42.24Q142.97 42.24 144.70 40.65Q146.44 39.06 146.90 35.77ZM154.98 45.26L154.98 9.47L159.38 9.47L159.38 22.31Q162.45 18.75 167.14 18.75Q170.02 18.75 172.14 19.89Q174.27 21.02 175.18 23.02Q176.10 25.02 176.10 28.83L176.10 45.26L171.70 45.26L171.70 28.83Q171.70 25.54 170.28 24.04Q168.85 22.53 166.24 22.53Q164.28 22.53 162.56 23.55Q160.84 24.56 160.11 26.29Q159.38 28.03 159.38 31.08L159.38 45.26L154.98 45.26ZM182.81 14.53L182.81 9.47L187.21 9.47L187.21 14.53L182.81 14.53M182.81 45.26L182.81 19.34L187.21 19.34L187.21 45.26L182.81 45.26ZM210.82 42.07Q208.37 44.14 206.12 45.00Q203.86 45.85 201.27 45.85Q197.00 45.85 194.70 43.76Q192.41 41.67 192.41 38.43Q192.41 36.52 193.27 34.95Q194.14 33.37 195.54 32.42Q196.95 31.47 198.71 30.98Q200 30.64 202.61 30.32Q207.93 29.69 210.45 28.81Q210.47 27.91 210.47 27.66Q210.47 24.98 209.23 23.88Q207.54 22.39 204.22 22.39Q201.12 22.39 199.65 23.47Q198.17 24.56 197.46 27.32L193.16 26.73Q193.75 23.97 195.09 22.28Q196.44 20.58 198.97 19.67Q201.51 18.75 204.86 18.75Q208.18 18.75 210.25 19.53Q212.33 20.31 213.31 21.50Q214.28 22.68 214.67 24.49Q214.89 25.61 214.89 28.54L214.89 34.40Q214.89 40.53 215.17 42.15Q215.45 43.77 216.28 45.26L211.69 45.26Q211.01 43.90 210.82 42.07M210.45 32.25Q208.06 33.23 203.27 33.91Q200.56 34.30 199.44 34.79Q198.32 35.28 197.71 36.22Q197.09 37.16 197.09 38.31Q197.09 40.06 198.43 41.24Q199.76 42.41 202.32 42.41Q204.86 42.41 206.84 41.30Q208.81 40.19 209.74 38.26Q210.45 36.77 210.45 33.86L210.45 32.25ZM233.84 37.52L238.18 36.84Q238.55 39.45 240.22 40.84Q241.89 42.24 244.90 42.24Q247.92 42.24 249.39 41.00Q250.85 39.77 250.85 38.11Q250.85 36.62 249.56 35.77Q248.66 35.18 245.07 34.28Q240.23 33.06 238.37 32.17Q236.50 31.27 235.53 29.70Q234.57 28.13 234.57 26.22Q234.57 24.49 235.36 23.01Q236.16 21.53 237.52 20.56Q238.55 19.80 240.32 19.27Q242.09 18.75 244.12 18.75Q247.17 18.75 249.48 19.63Q251.78 20.51 252.88 22.01Q253.98 23.51 254.39 26.03L250.10 26.61Q249.80 24.61 248.40 23.49Q247.00 22.36 244.43 22.36Q241.41 22.36 240.11 23.36Q238.82 24.37 238.82 25.71Q238.82 26.56 239.36 27.25Q239.89 27.95 241.04 28.42Q241.70 28.66 244.92 29.54Q249.58 30.79 251.43 31.58Q253.27 32.37 254.32 33.89Q255.37 35.40 255.37 37.65Q255.37 39.84 254.09 41.78Q252.81 43.73 250.39 44.79Q247.97 45.85 244.92 45.85Q239.87 45.85 237.22 43.75Q234.57 41.65 233.84 37.52ZM278.34 36.91L282.89 37.48Q281.81 41.46 278.91 43.65Q276.00 45.85 271.48 45.85Q265.80 45.85 262.46 42.35Q259.13 38.84 259.13 32.52Q259.13 25.98 262.50 22.36Q265.87 18.75 271.24 18.75Q276.44 18.75 279.74 22.29Q283.03 25.83 283.03 32.25Q283.03 32.64 283.01 33.42L263.67 33.42Q263.92 37.70 266.09 39.97Q268.26 42.24 271.51 42.24Q273.93 42.24 275.63 40.97Q277.34 39.70 278.34 36.91M263.92 29.81L278.39 29.81Q278.10 26.54 276.73 24.90Q274.63 22.36 271.29 22.36Q268.26 22.36 266.20 24.39Q264.14 26.42 263.92 29.81M270.00 13.18Q271.39 13.04 271.78 12.92Q273.07 12.48 273.10 11.55Q273.12 10.99 272.41 10.60Q271.39 10.03 269.17 10.03Q268.41 10.03 266.87 10.13L266.60 7.64Q267.55 7.45 270.12 7.47Q273.12 7.50 275.02 8.45Q277.12 9.47 277.17 11.30Q277.27 14.33 272.73 14.89L272.73 16.11L270.00 16.11L270.00 13.18ZM303.10 45.26L303.10 9.47L327.25 9.47L327.25 13.70L307.84 13.70L307.84 24.78L324.63 24.78L324.63 29.00L307.84 29.00L307.84 45.26L303.10 45.26ZM349.76 42.07Q347.31 44.14 345.06 45.00Q342.80 45.85 340.21 45.85Q335.94 45.85 333.64 43.76Q331.35 41.67 331.35 38.43Q331.35 36.52 332.21 34.95Q333.08 33.37 334.48 32.42Q335.89 31.47 337.65 30.98Q338.94 30.64 341.55 30.32Q346.88 29.69 349.39 28.81Q349.41 27.91 349.41 27.66Q349.41 24.98 348.17 23.88Q346.48 22.39 343.16 22.39Q340.06 22.39 338.59 23.47Q337.11 24.56 336.40 27.32L332.10 26.73Q332.69 23.97 334.03 22.28Q335.38 20.58 337.92 19.67Q340.45 18.75 343.80 18.75Q347.12 18.75 349.19 19.53Q351.27 20.31 352.25 21.50Q353.22 22.68 353.61 24.49Q353.83 25.61 353.83 28.54L353.83 34.40Q353.83 40.53 354.11 42.15Q354.39 43.77 355.22 45.26L350.63 45.26Q349.95 43.90 349.76 42.07M349.39 32.25Q347.00 33.23 342.21 33.91Q339.50 34.30 338.38 34.79Q337.26 35.28 336.65 36.22Q336.04 37.16 336.04 38.31Q336.04 40.06 337.37 41.24Q338.70 42.41 341.26 42.41Q343.80 42.41 345.78 41.30Q347.75 40.19 348.68 38.26Q349.39 36.77 349.39 33.86L349.39 32.25ZM377.56 35.77L381.88 36.33Q381.18 40.80 378.26 43.32Q375.34 45.85 371.09 45.85Q365.77 45.85 362.54 42.37Q359.30 38.89 359.30 32.40Q359.30 28.20 360.69 25.05Q362.08 21.90 364.93 20.32Q367.77 18.75 371.12 18.75Q375.34 18.75 378.03 20.89Q380.71 23.02 381.47 26.95L377.20 27.61Q376.59 25 375.04 23.68Q373.49 22.36 371.29 22.36Q367.97 22.36 365.89 24.74Q363.82 27.12 363.82 32.28Q363.82 37.50 365.82 39.87Q367.82 42.24 371.04 42.24Q373.63 42.24 375.37 40.65Q377.10 39.06 377.56 35.77ZM403.39 36.91L407.93 37.48Q406.86 41.46 403.96 43.65Q401.05 45.85 396.53 45.85Q390.84 45.85 387.51 42.35Q384.18 38.84 384.18 32.52Q384.18 25.98 387.55 22.36Q390.92 18.75 396.29 18.75Q401.49 18.75 404.79 22.29Q408.08 25.83 408.08 32.25Q408.08 32.64 408.06 33.42L388.72 33.42Q388.96 37.70 391.14 39.97Q393.31 42.24 396.56 42.24Q398.97 42.24 400.68 40.97Q402.39 39.70 403.39 36.91M388.96 29.81L403.44 29.81Q403.15 26.54 401.78 24.90Q399.68 22.36 396.34 22.36Q393.31 22.36 391.25 24.39Q389.18 26.42 388.96 29.81ZM417.50 45.26L413.43 45.26L413.43 9.47L417.82 9.47L417.82 22.24Q420.61 18.75 424.93 18.75Q427.32 18.75 429.46 19.71Q431.59 20.68 432.97 22.42Q434.35 24.17 435.13 26.64Q435.91 29.10 435.91 31.91Q435.91 38.57 432.62 42.21Q429.32 45.85 424.71 45.85Q420.12 45.85 417.50 42.02L417.50 45.26M417.46 32.10Q417.46 36.77 418.73 38.84Q420.80 42.24 424.34 42.24Q427.22 42.24 429.32 39.73Q431.42 37.23 431.42 32.28Q431.42 27.20 429.41 24.78Q427.39 22.36 424.54 22.36Q421.66 22.36 419.56 24.87Q417.46 27.37 417.46 32.10ZM439.62 32.30Q439.62 25.10 443.63 21.63Q446.97 18.75 451.78 18.75Q457.13 18.75 460.52 22.25Q463.92 25.76 463.92 31.93Q463.92 36.94 462.41 39.81Q460.91 42.68 458.04 44.26Q455.18 45.85 451.78 45.85Q446.34 45.85 442.98 42.36Q439.62 38.87 439.62 32.30M444.14 32.30Q444.14 37.28 446.31 39.76Q448.49 42.24 451.78 42.24Q455.05 42.24 457.23 39.75Q459.40 37.26 459.40 32.15Q459.40 27.34 457.21 24.87Q455.03 22.39 451.78 22.39Q448.49 22.39 446.31 24.85Q444.14 27.32 444.14 32.30ZM467.43 32.30Q467.43 25.10 471.44 21.63Q474.78 18.75 479.59 18.75Q484.94 18.75 488.33 22.25Q491.72 25.76 491.72 31.93Q491.72 36.94 490.22 39.81Q488.72 42.68 485.85 44.26Q482.98 45.85 479.59 45.85Q474.15 45.85 470.79 42.36Q467.43 38.87 467.43 32.30M471.95 32.30Q471.95 37.28 474.12 39.76Q476.29 42.24 479.59 42.24Q482.86 42.24 485.03 39.75Q487.21 37.26 487.21 32.15Q487.21 27.34 485.02 24.87Q482.84 22.39 479.59 22.39Q476.29 22.39 474.12 24.85Q471.95 27.32 471.95 32.30ZM496.90 45.26L496.90 9.47L501.29 9.47L501.29 29.88L511.69 19.34L517.38 19.34L507.47 28.96L518.38 45.26L512.96 45.26L504.39 32.01L501.29 34.99L501.29 45.26L496.90 45.26Z"/></g></g></svg>