<svg xmlns="http://www.w3.org/2000/svg" viewBox="0 9.470000267028809 537.8900146484375 46.31999969482422" data-asc="0.9052734375"><g fill="#000000"><g fill="#000000" transform="translate(0, 0)"><path d="M11.79 45.26L11.79 13.70L0 13.70L0 9.47L28.37 9.47L28.37 13.70L16.53 13.70L16.53 45.26L11.79 45.26ZM49.58 42.07Q47.14 44.14 44.89 45.00Q42.63 45.85 40.04 45.85Q35.77 45.85 33.47 43.76Q31.18 41.67 31.18 38.43Q31.18 36.52 32.04 34.95Q32.91 33.37 34.31 32.42Q35.72 31.47 37.48 30.98Q38.77 30.64 41.38 30.32Q46.70 29.69 49.22 28.81Q49.24 27.91 49.24 27.66Q49.24 24.98 48.00 23.88Q46.31 22.39 42.99 22.39Q39.89 22.39 38.42 23.47Q36.94 24.56 36.23 27.32L31.93 26.73Q32.52 23.97 33.86 22.28Q35.21 20.58 37.74 19.67Q40.28 18.75 43.63 18.75Q46.95 18.75 49.02 19.53Q51.10 20.31 52.08 21.50Q53.05 22.68 53.44 24.49Q53.66 25.61 53.66 28.54L53.66 34.40Q53.66 40.53 53.94 42.15Q54.22 43.77 55.05 45.26L50.46 45.26Q49.78 43.90 49.58 42.07M49.22 32.25Q46.83 33.23 42.04 33.91Q39.33 34.30 38.21 34.79Q37.08 35.28 36.47 36.22Q35.86 37.16 35.86 38.31Q35.86 40.06 37.19 41.24Q38.53 42.41 41.09 42.41Q43.63 42.41 45.61 41.30Q47.58 40.19 48.51 38.26Q49.22 36.77 49.22 33.86L49.22 32.25M47.90 9.52L50.90 9.52Q50.54 12.57 48.67 14.21Q46.80 15.84 43.70 15.84Q40.58 15.84 38.71 14.22Q36.84 12.60 36.47 9.52L39.48 9.52Q39.82 11.18 40.83 12.00Q41.85 12.82 43.55 12.82Q45.53 12.82 46.55 12.02Q47.56 11.23 47.90 9.52ZM60.47 45.26L60.47 19.34L64.43 19.34L64.43 23.02Q67.29 18.75 72.68 18.75Q75.02 18.75 76.99 19.59Q78.96 20.43 79.93 21.80Q80.91 23.17 81.30 25.05Q81.54 26.27 81.54 29.32L81.54 45.26L77.15 45.26L77.15 29.49Q77.15 26.81 76.64 25.48Q76.12 24.15 74.82 23.35Q73.51 22.56 71.75 22.56Q68.95 22.56 66.91 24.34Q64.87 26.12 64.87 31.10L64.87 45.26L60.47 45.26ZM87.48 47.41L91.75 48.05Q92.02 50.02 93.24 50.93Q94.87 52.15 97.71 52.15Q100.76 52.15 102.42 50.93Q104.08 49.71 104.66 47.51Q105.00 46.17 104.98 41.87Q102.10 45.26 97.80 45.26Q92.46 45.26 89.53 41.41Q86.60 37.55 86.60 32.15Q86.60 28.44 87.94 25.31Q89.28 22.17 91.83 20.46Q94.38 18.75 97.83 18.75Q102.42 18.75 105.40 22.46L105.40 19.34L109.45 19.34L109.45 41.75Q109.45 47.80 108.22 50.33Q106.98 52.86 104.31 54.32Q101.64 55.79 97.73 55.79Q93.09 55.79 90.23 53.70Q87.38 51.61 87.48 47.41M91.11 31.84Q91.11 36.94 93.14 39.28Q95.17 41.63 98.22 41.63Q101.25 41.63 103.30 39.29Q105.35 36.96 105.35 31.98Q105.35 27.22 103.23 24.80Q101.12 22.39 98.14 22.39Q95.21 22.39 93.16 24.77Q91.11 27.15 91.11 31.84ZM139.58 41.33L140.21 45.21Q138.35 45.61 136.89 45.61Q134.50 45.61 133.18 44.85Q131.86 44.09 131.32 42.86Q130.79 41.63 130.79 37.67L130.79 22.75L127.56 22.75L127.56 19.34L130.79 19.34L130.79 12.92L135.16 10.28L135.16 19.34L139.58 19.34L139.58 22.75L135.16 22.75L135.16 37.92Q135.16 39.79 135.39 40.33Q135.62 40.87 136.15 41.19Q136.67 41.50 137.65 41.50Q138.38 41.50 139.58 41.33ZM143.87 45.26L143.87 9.47L148.27 9.47L148.27 22.31Q151.34 18.75 156.03 18.75Q158.91 18.75 161.04 19.89Q163.16 21.02 164.07 23.02Q164.99 25.02 164.99 28.83L164.99 45.26L160.60 45.26L160.60 28.83Q160.60 25.54 159.17 24.04Q157.74 22.53 155.13 22.53Q153.17 22.53 151.45 23.55Q149.73 24.56 149.00 26.29Q148.27 28.03 148.27 31.08L148.27 45.26L143.87 45.26ZM189.43 36.91L193.97 37.48Q192.90 41.46 189.99 43.65Q187.08 45.85 182.57 45.85Q176.88 45.85 173.55 42.35Q170.21 38.84 170.21 32.52Q170.21 25.98 173.58 22.36Q176.95 18.75 182.32 18.75Q187.52 18.75 190.82 22.29Q194.12 25.83 194.12 32.25Q194.12 32.64 194.09 33.42L174.76 33.42Q175 37.70 177.17 39.97Q179.35 42.24 182.59 42.24Q185.01 42.24 186.72 40.97Q188.43 39.70 189.43 36.91M175 29.81L189.48 29.81Q189.18 26.54 187.82 24.90Q185.72 22.36 182.37 22.36Q179.35 22.36 177.28 24.39Q175.22 26.42 175 29.81ZM197.85 32.30Q197.85 25.10 201.86 21.63Q205.20 18.75 210.01 18.75Q215.36 18.75 218.75 22.25Q222.14 25.76 222.14 31.93Q222.14 36.94 220.64 39.81Q219.14 42.68 216.27 44.26Q213.40 45.85 210.01 45.85Q204.57 45.85 201.21 42.36Q197.85 38.87 197.85 32.30M202.37 32.30Q202.37 37.28 204.54 39.76Q206.71 42.24 210.01 42.24Q213.28 42.24 215.45 39.75Q217.63 37.26 217.63 32.15Q217.63 27.34 215.44 24.87Q213.26 22.39 210.01 22.39Q206.71 22.39 204.54 24.85Q202.37 27.32 202.37 32.30ZM258.01 45.26L258.01 41.99Q255.54 45.85 250.76 45.85Q247.66 45.85 245.06 44.14Q242.46 42.43 241.03 39.37Q239.60 36.30 239.60 32.32Q239.60 28.44 240.89 25.28Q242.19 22.12 244.78 20.43Q247.36 18.75 250.56 18.75Q252.91 18.75 254.74 19.74Q256.57 20.73 257.71 22.31L257.71 9.47L262.08 9.47L262.08 45.26L258.01 45.26M244.12 32.32Q244.12 37.30 246.22 39.77Q248.32 42.24 251.17 42.24Q254.05 42.24 256.07 39.88Q258.08 37.52 258.08 32.69Q258.08 27.37 256.03 24.88Q253.98 22.39 250.98 22.39Q248.05 22.39 246.08 24.78Q244.12 27.17 244.12 32.32ZM267.36 32.30Q267.36 25.10 271.36 21.63Q274.71 18.75 279.52 18.75Q284.86 18.75 288.26 22.25Q291.65 25.76 291.65 31.93Q291.65 36.94 290.15 39.81Q288.65 42.68 285.78 44.26Q282.91 45.85 279.52 45.85Q274.07 45.85 270.72 42.36Q267.36 38.87 267.36 32.30M271.88 32.30Q271.88 37.28 274.05 39.76Q276.22 42.24 279.52 42.24Q282.79 42.24 284.96 39.75Q287.13 37.26 287.13 32.15Q287.13 27.34 284.95 24.87Q282.76 22.39 279.52 22.39Q276.22 22.39 274.05 24.85Q271.88 27.32 271.88 32.30M271.34 15.50Q271.31 12.96 272.73 11.45Q274.12 9.94 276.29 9.94Q277.81 9.94 280.42 11.25Q281.86 11.99 282.71 11.99Q283.50 11.99 283.91 11.56Q284.33 11.13 284.50 9.86L287.67 9.86Q287.60 12.65 286.27 14.04Q284.94 15.43 282.89 15.43Q281.35 15.43 278.83 14.06Q277.20 13.18 276.44 13.18Q275.61 13.18 275.10 13.77Q274.56 14.36 274.58 15.50L271.34 15.50ZM296.83 14.53L296.83 9.47L301.22 9.47L301.22 14.53L296.83 14.53M296.83 45.26L296.83 19.34L301.22 19.34L301.22 45.26L296.83 45.26ZM322.61 45.26L322.61 9.47L346.75 9.47L346.75 13.70L327.34 13.70L327.34 24.78L344.14 24.78L344.14 29.00L327.34 29.00L327.34 45.26L322.61 45.26ZM369.26 42.07Q366.82 44.14 364.56 45.00Q362.30 45.85 359.72 45.85Q355.44 45.85 353.15 43.76Q350.85 41.67 350.85 38.43Q350.85 36.52 351.72 34.95Q352.59 33.37 353.99 32.42Q355.40 31.47 357.15 30.98Q358.45 30.64 361.06 30.32Q366.38 29.69 368.90 28.81Q368.92 27.91 368.92 27.66Q368.92 24.98 367.68 23.88Q365.99 22.39 362.67 22.39Q359.57 22.39 358.09 23.47Q356.62 24.56 355.91 27.32L351.61 26.73Q352.20 23.97 353.54 22.28Q354.88 20.58 357.42 19.67Q359.96 18.75 363.31 18.75Q366.63 18.75 368.70 19.53Q370.78 20.31 371.75 21.50Q372.73 22.68 373.12 24.49Q373.34 25.61 373.34 28.54L373.34 34.40Q373.34 40.53 373.62 42.15Q373.90 43.77 374.73 45.26L370.14 45.26Q369.46 43.90 369.26 42.07M368.90 32.25Q366.50 33.23 361.72 33.91Q359.01 34.30 357.89 34.79Q356.76 35.28 356.15 36.22Q355.54 37.16 355.54 38.31Q355.54 40.06 356.87 41.24Q358.20 42.41 360.77 42.41Q363.31 42.41 365.28 41.30Q367.26 40.19 368.19 38.26Q368.90 36.77 368.90 33.86L368.90 32.25ZM397.07 35.77L401.39 36.33Q400.68 40.80 397.77 43.32Q394.85 45.85 390.60 45.85Q385.28 45.85 382.04 42.37Q378.81 38.89 378.81 32.40Q378.81 28.20 380.20 25.05Q381.59 21.90 384.44 20.32Q387.28 18.75 390.63 18.75Q394.85 18.75 397.53 20.89Q400.22 23.02 400.98 26.95L396.70 27.61Q396.09 25 394.54 23.68Q392.99 22.36 390.80 22.36Q387.48 22.36 385.40 24.74Q383.33 27.12 383.33 32.28Q383.33 37.50 385.33 39.87Q387.33 42.24 390.55 42.24Q393.14 42.24 394.87 40.65Q396.61 39.06 397.07 35.77ZM422.90 36.91L427.44 37.48Q426.37 41.46 423.46 43.65Q420.56 45.85 416.04 45.85Q410.35 45.85 407.02 42.35Q403.69 38.84 403.69 32.52Q403.69 25.98 407.06 22.36Q410.42 18.75 415.80 18.75Q421.00 18.75 424.29 22.29Q427.59 25.83 427.59 32.25Q427.59 32.64 427.56 33.42L408.23 33.42Q408.47 37.70 410.64 39.97Q412.82 42.24 416.06 42.24Q418.48 42.24 420.19 40.97Q421.90 39.70 422.90 36.91M408.47 29.81L422.95 29.81Q422.66 26.54 421.29 24.90Q419.19 22.36 415.84 22.36Q412.82 22.36 410.75 24.39Q408.69 26.42 408.47 29.81ZM437.01 45.26L432.93 45.26L432.93 9.47L437.33 9.47L437.33 22.24Q440.11 18.75 444.43 18.75Q446.83 18.75 448.96 19.71Q451.10 20.68 452.48 22.42Q453.86 24.17 454.64 26.64Q455.42 29.10 455.42 31.91Q455.42 38.57 452.12 42.21Q448.83 45.85 444.21 45.85Q439.62 45.85 437.01 42.02L437.01 45.26M436.96 32.10Q436.96 36.77 438.23 38.84Q440.31 42.24 443.85 42.24Q446.73 42.24 448.83 39.73Q450.93 37.23 450.93 32.28Q450.93 27.20 448.91 24.78Q446.90 22.36 444.04 22.36Q441.16 22.36 439.06 24.87Q436.96 27.37 436.96 32.10ZM459.13 32.30Q459.13 25.10 463.13 21.63Q466.48 18.75 471.29 18.75Q476.64 18.75 480.03 22.25Q483.42 25.76 483.42 31.93Q483.42 36.94 481.92 39.81Q480.42 42.68 477.55 44.26Q474.68 45.85 471.29 45.85Q465.84 45.85 462.49 42.36Q459.13 38.87 459.13 32.30M463.65 32.30Q463.65 37.28 465.82 39.76Q467.99 42.24 471.29 42.24Q474.56 42.24 476.73 39.75Q478.91 37.26 478.91 32.15Q478.91 27.34 476.72 24.87Q474.54 22.39 471.29 22.39Q467.99 22.39 465.82 24.85Q463.65 27.32 463.65 32.30ZM486.94 32.30Q486.94 25.10 490.94 21.63Q494.29 18.75 499.10 18.75Q504.44 18.75 507.84 22.25Q511.23 25.76 511.23 31.93Q511.23 36.94 509.73 39.81Q508.23 42.68 505.36 44.26Q502.49 45.85 499.10 45.85Q493.65 45.85 490.30 42.36Q486.94 38.87 486.94 32.30M491.46 32.30Q491.46 37.28 493.63 39.76Q495.80 42.24 499.10 42.24Q502.37 42.24 504.54 39.75Q506.71 37.26 506.71 32.15Q506.71 27.34 504.53 24.87Q502.34 22.39 499.10 22.39Q495.80 22.39 493.63 24.85Q491.46 27.32 491.46 32.30ZM516.41 45.26L516.41 9.47L520.80 9.47L520.80 29.88L531.20 19.34L536.89 19.34L526.98 28.96L537.89 45.26L532.47 45.26L523.90 32.01L520.80 34.99L520.80 45.26L516.41 45.26Z"/></g></g></svg>